<svg width="40" height="40" viewBox="0 0 40 40" fill="none" xmlns="http://www.w3.org/2000/svg">
<g id="Group 468">
<path id="Vector" d="M18.6664 0H-0.000244141V18.6667H18.6664V0Z" fill="#F9B54C"/>
<path id="Vector_2" d="M17.3337 1.33325H1.33374V17.3333H17.3337V1.33325Z" fill="#FFD05B"/>
<path id="Vector_3" d="M14.6664 14.6667H12.3331L11.4025 12.2405H7.15253L6.27753 14.6667H3.99976L8.13864 4H10.4164L14.6664 14.6667ZM10.722 10.4418L9.26364 6.48192L7.83309 10.4418H10.722Z" fill="#2B3B4E"/>
<path id="Vector_4" d="M40.0004 0H21.3337V18.6667H40.0004V0Z" fill="#2FB5A0"/>
<path id="Vector_5" d="M38.6658 1.33325H22.6658V17.3333H38.6658V1.33325Z" fill="#4CDBC4"/>
<path id="Vector_6" d="M26.6658 4H30.4908C31.2533 4 31.8158 4.04189 32.1783 4.11169C32.5533 4.1815 32.8783 4.33508 33.1783 4.55846C33.4658 4.78185 33.7158 5.07504 33.9158 5.45201C34.1158 5.82897 34.2033 6.23386 34.2033 6.69459C34.2033 7.19721 34.0783 7.65794 33.8408 8.07679C33.6033 8.49564 33.2783 8.80279 32.8533 9.01222C33.4408 9.20768 33.8783 9.5288 34.1908 9.97557C34.5033 10.4363 34.6658 10.9668 34.6658 11.5812C34.6658 12.0698 34.5658 12.5445 34.3658 12.9913C34.1658 13.452 33.8908 13.815 33.5408 14.0942C33.1908 14.3735 32.7533 14.541 32.2408 14.5969C31.9158 14.6387 31.1408 14.6667 29.9158 14.6667H26.6658V4ZM28.6033 5.77313V8.24433H29.8658C30.6158 8.24433 31.0908 8.23037 31.2658 8.20244C31.5908 8.16056 31.8533 8.0349 32.0408 7.82548C32.2283 7.61606 32.3283 7.33682 32.3283 6.98778C32.3283 6.65271 32.2408 6.38744 32.0783 6.17801C31.9158 5.96859 31.6783 5.84293 31.3533 5.80105C31.1658 5.77313 30.6158 5.75916 29.7033 5.75916H28.6033V5.77313ZM28.6033 10.0314V12.8935H30.3908C31.0908 12.8935 31.5283 12.8656 31.7158 12.8237C32.0033 12.7679 32.2408 12.6283 32.4158 12.3909C32.5908 12.1675 32.6908 11.8604 32.6908 11.4834C32.6908 11.1623 32.6158 10.897 32.4783 10.6736C32.3408 10.4503 32.1408 10.2827 31.8783 10.185C31.6158 10.0873 31.0408 10.0314 30.1658 10.0314H28.6033Z" fill="white"/>
<path id="Vector_7" d="M18.6664 21.3333H-0.000244141V40H18.6664V21.3333Z" fill="#54C0EB"/>
<path id="Vector_8" d="M17.3337 22.6667H1.33374V38.6667H17.3337V22.6667Z" fill="#84DBFF"/>
<path id="Vector_9" d="M12.565 32.0403L14.6671 32.6733C14.3448 33.7912 13.8122 34.6262 13.0555 35.1784C12.3127 35.7306 11.3598 35.9999 10.2106 35.9999C8.78119 35.9999 7.61802 35.5285 6.70711 34.5992C5.7962 33.67 5.33374 32.3905 5.33374 30.7609C5.33374 29.0504 5.7962 27.7171 6.72113 26.7609C7.64605 25.8181 8.85126 25.3333 10.3508 25.3333C11.6681 25.3333 12.7331 25.7104 13.546 26.4511C14.0364 26.8955 14.4008 27.5285 14.639 28.3501L12.4949 28.8484C12.3688 28.3097 12.1025 27.8922 11.6961 27.5824C11.2897 27.2726 10.7992 27.1245 10.2246 27.1245C9.42583 27.1245 8.78119 27.3939 8.2907 27.946C7.80021 28.4982 7.54795 29.3871 7.54795 30.6127C7.54795 31.9191 7.78619 32.8484 8.27668 33.4006C8.76717 33.9528 9.3978 34.2356 10.1826 34.2356C10.7572 34.2356 11.2477 34.0605 11.6681 33.7104C12.0885 33.3467 12.3828 32.7945 12.565 32.0403Z" fill="#F1543F"/>
<path id="Vector_10" d="M40.0004 21.3333H21.3337V39.9999H40.0004V21.3333Z" fill="#ACB3BA"/>
<path id="Vector_11" d="M38.6658 22.6667H22.6658V38.6667H38.6658V22.6667Z" fill="#E6E9EE"/>
<path id="Vector_12" d="M26.6782 25.3333H30.1923C30.9898 25.3333 31.5879 25.403 32.0116 25.5424C32.5723 25.7237 33.0458 26.0583 33.4446 26.5184C33.8433 26.9925 34.1424 27.5642 34.3542 28.2474C34.5661 28.9306 34.6658 29.7672 34.6658 30.7712C34.6658 31.6496 34.5661 32.4025 34.3792 33.0439C34.1424 33.8248 33.806 34.4522 33.3574 34.9263C33.0209 35.2888 32.5723 35.5677 31.9991 35.7768C31.5754 35.9302 31.0022 35.9999 30.2919 35.9999H26.6658V25.3333H26.6782ZM28.5972 27.1319V34.2012H30.0303C30.5661 34.2012 30.9524 34.1733 31.1891 34.1036C31.5007 34.02 31.7623 33.8666 31.9617 33.6574C32.1736 33.4483 32.3356 33.0997 32.4602 32.6256C32.5848 32.1516 32.6595 31.4962 32.6595 30.6736C32.6595 29.8509 32.5972 29.2095 32.4602 28.7773C32.3356 28.3311 32.1486 27.9964 31.9119 27.7455C31.6751 27.4945 31.3761 27.3271 31.0271 27.2435C30.753 27.1738 30.2296 27.1459 29.4446 27.1459H28.5972V27.1319Z" fill="#2B3B4E"/>
</g>
</svg>
