<svg width="25" height="24" viewBox="0 0 25 24" fill="none" xmlns="http://www.w3.org/2000/svg">
<path d="M17.197 17.7071C17.3845 17.5196 17.4899 17.2652 17.4899 17V9C17.4899 7.67392 16.9631 6.40215 16.0254 5.46447C15.9567 5.39578 15.8862 5.32931 15.8141 5.26508C15.7094 5.17194 15.6013 5.08354 15.4899 5C14.9572 4.60046 14.3512 4.31231 13.7086 4.15079C13.3134 4.05144 12.9043 4 12.4899 4C12.2014 4 11.9156 4.02492 11.6351 4.07358C10.8577 4.20847 10.1222 4.52575 9.48987 5C9.35083 5.10428 9.21678 5.21614 9.08837 5.33533C9.04298 5.37746 8.99829 5.42051 8.95433 5.46447C8.01665 6.40215 7.48987 7.67392 7.48987 9V17C7.48987 17.2652 7.59523 17.5196 7.78276 17.7071C7.9703 17.8946 8.22465 18 8.48987 18H9.48987H15.4899H16.4899C16.7551 18 17.0094 17.8946 17.197 17.7071Z" fill="#42ADE2"/>
<path d="M4.48987 10V16M20.4899 10V16M16.4899 18C16.7551 18 17.0094 17.8946 17.197 17.7071C17.3845 17.5196 17.4899 17.2652 17.4899 17V9C17.4899 7.67392 16.9631 6.40215 16.0254 5.46447C15.9567 5.39578 15.8862 5.32931 15.8141 5.26508M16.4899 18H8.48987M16.4899 18H15.4899M8.48987 18C8.22465 18 7.9703 17.8946 7.78276 17.7071C7.59523 17.5196 7.48987 17.2652 7.48987 17V9C7.48987 7.67392 8.01665 6.40215 8.95433 5.46447C8.99829 5.42051 9.04298 5.37746 9.08837 5.33533M8.48987 18H9.48987M8.48987 3L9.48987 5M9.48987 5C10.1222 4.52575 10.8577 4.20847 11.6351 4.07358M9.48987 5C9.35083 5.10428 9.21678 5.21614 9.08837 5.33533M16.4899 3L15.4899 5M15.4899 5C15.6013 5.08354 15.7094 5.17194 15.8141 5.26508M15.4899 5C14.9572 4.60046 14.3512 4.31231 13.7086 4.15079M9.48987 18V21M9.48987 18H15.4899M15.4899 18V21M15.8141 5.26508C15.209 4.72646 14.4855 4.34608 13.7086 4.15079M13.7086 4.15079C13.3134 4.05144 12.9043 4 12.4899 4C12.2014 4 11.9156 4.02492 11.6351 4.07358M11.6351 4.07358C10.6868 4.23812 9.80072 4.67408 9.08837 5.33533" stroke="#42ADE2" stroke-width="2" stroke-linecap="round" stroke-linejoin="round"/>
<path d="M6.98987 10L17.9899 10" stroke="white" stroke-linecap="square" stroke-linejoin="round"/>
</svg>
