<svg width="24" height="24" viewBox="0 0 24 24" fill="none" xmlns="http://www.w3.org/2000/svg">
<path d="M19 4C19.7956 4 20.5587 4.31607 21.1213 4.87868C21.6839 5.44129 22 6.20435 22 7V17C22 17.7956 21.6839 18.5587 21.1213 19.1213C20.5587 19.6839 19.7956 20 19 20H5C4.20435 20 3.44129 19.6839 2.87868 19.1213C2.31607 18.5587 2 17.7956 2 17V7C2 6.20435 2.31607 5.44129 2.87868 4.87868C3.44129 4.31607 4.20435 4 5 4H19ZM6.01 7L5.883 7.007C5.6299 7.0371 5.39786 7.16271 5.23426 7.35817C5.07067 7.55362 4.98789 7.80416 5.00283 8.05861C5.01777 8.31305 5.1293 8.55218 5.31463 8.72715C5.49997 8.90212 5.74512 8.99972 6 9L6.127 8.993C6.3801 8.9629 6.61214 8.83729 6.77574 8.64183C6.93933 8.44638 7.02211 8.19584 7.00717 7.94139C6.99224 7.68695 6.8807 7.44782 6.69537 7.27285C6.51003 7.09788 6.26488 7.00028 6.01 7ZM9.01 7L8.883 7.007C8.6299 7.0371 8.39785 7.16271 8.23426 7.35817C8.07067 7.55362 7.98789 7.80416 8.00283 8.05861C8.01776 8.31305 8.1293 8.55218 8.31463 8.72715C8.49997 8.90212 8.74512 8.99972 9 9L9.127 8.993C9.3801 8.9629 9.61214 8.83729 9.77573 8.64183C9.93933 8.44638 10.0221 8.19584 10.0072 7.94139C9.99223 7.68695 9.8807 7.44782 9.69537 7.27285C9.51003 7.09788 9.26488 7.00028 9.01 7Z" fill="#42ADE2"/>
</svg>
