<svg width="25" height="24" viewBox="0 0 25 24" fill="none" xmlns="http://www.w3.org/2000/svg">
<g id="tabler-icon-app-window-filled">
<path id="Vector" d="M19.4897 4C20.2854 4 21.0485 4.31607 21.6111 4.87868C22.1737 5.44129 22.4897 6.20435 22.4897 7V17C22.4897 17.7956 22.1737 18.5587 21.6111 19.1213C21.0485 19.6839 20.2854 20 19.4897 20H5.48975C4.6941 20 3.93104 19.6839 3.36843 19.1213C2.80582 18.5587 2.48975 17.7956 2.48975 17V7C2.48975 6.20435 2.80582 5.44129 3.36843 4.87868C3.93104 4.31607 4.6941 4 5.48975 4H19.4897ZM6.49975 7L6.37275 7.007C6.11965 7.0371 5.8876 7.16271 5.72401 7.35817C5.56042 7.55362 5.47764 7.80416 5.49257 8.05861C5.50751 8.31305 5.61904 8.55218 5.80438 8.72715C5.98971 8.90212 6.23487 8.99972 6.48975 9L6.61675 8.993C6.86984 8.9629 7.10189 8.83729 7.26548 8.64183C7.42907 8.44638 7.51186 8.19584 7.49692 7.94139C7.48198 7.68695 7.37045 7.44782 7.18511 7.27285C6.99978 7.09788 6.75463 7.00028 6.49975 7ZM9.49975 7L9.37275 7.007C9.11965 7.0371 8.8876 7.16271 8.72401 7.35817C8.56042 7.55362 8.47764 7.80416 8.49257 8.05861C8.50751 8.31305 8.61904 8.55218 8.80438 8.72715C8.98971 8.90212 9.23487 8.99972 9.48975 9L9.61675 8.993C9.86984 8.9629 10.1019 8.83729 10.2655 8.64183C10.4291 8.44638 10.5119 8.19584 10.4969 7.94139C10.482 7.68695 10.3705 7.44782 10.1851 7.27285C9.99978 7.09788 9.75463 7.00028 9.49975 7Z" fill="#42ADE2"/>
</g>
</svg>
