<svg width="40" height="40" viewBox="0 0 40 40" fill="none" xmlns="http://www.w3.org/2000/svg">
<g id="construction-svgrepo-com 1" clip-path="url(#clip0_125_18302)">
<path id="Vector" d="M27.5892 16.1785H15.0286C14.9277 16.1785 14.831 16.2186 14.7596 16.2899C14.6883 16.3612 14.6482 16.458 14.6482 16.5589V39.2325C14.6482 39.3334 14.6883 39.4302 14.7596 39.5015C14.831 39.5728 14.9277 39.6129 15.0286 39.6129H27.5891C27.69 39.6129 27.7868 39.5728 27.8581 39.5015C27.9294 39.4302 27.9695 39.3334 27.9695 39.2325V16.5589C27.9695 16.5089 27.9597 16.4594 27.9406 16.4133C27.9215 16.3671 27.8935 16.3252 27.8582 16.2899C27.8228 16.2546 27.7809 16.2265 27.7348 16.2074C27.6886 16.1883 27.6392 16.1785 27.5892 16.1785Z" fill="#597B91"/>
<path id="Vector_2" d="M18.3241 26.307H16.9121C16.8082 26.307 16.7087 26.2658 16.6352 26.1924C16.5618 26.1189 16.5206 26.0194 16.5206 25.9155V20.1379C16.5206 20.0341 16.5618 19.9345 16.6352 19.8611C16.7087 19.7877 16.8082 19.7464 16.9121 19.7464H18.3241C18.4279 19.7464 18.5275 19.7877 18.6009 19.8611C18.6743 19.9345 18.7156 20.0341 18.7156 20.1379V25.9155C18.7156 26.0194 18.6743 26.1189 18.6009 26.1924C18.5275 26.2658 18.4279 26.307 18.3241 26.307ZM22.3552 25.9156V20.138C22.3552 20.0341 22.3139 19.9346 22.2405 19.8611C22.1671 19.7877 22.0675 19.7465 21.9637 19.7465H20.5517C20.4478 19.7465 20.3483 19.7877 20.2748 19.8611C20.2014 19.9346 20.1602 20.0341 20.1602 20.138V25.9156C20.1602 26.0195 20.2014 26.119 20.2748 26.1924C20.3483 26.2659 20.4478 26.3071 20.5517 26.3071H21.9637C22.0675 26.3071 22.1671 26.2658 22.2405 26.1924C22.3139 26.119 22.3552 26.0194 22.3552 25.9156ZM25.9949 25.9156V20.138C25.9949 20.0341 25.9536 19.9346 25.8802 19.8611C25.8068 19.7877 25.7072 19.7465 25.6034 19.7465H24.1914C24.0875 19.7465 23.9879 19.7877 23.9145 19.8611C23.8411 19.9346 23.7999 20.0341 23.7999 20.138V25.9156C23.7999 26.0195 23.8411 26.119 23.9145 26.1924C23.9879 26.2659 24.0875 26.3071 24.1914 26.3071H25.6034C25.7072 26.3071 25.8068 26.2658 25.8802 26.1924C25.9536 26.119 25.9948 26.0194 25.9949 25.9156ZM18.7156 37.4941V31.7165C18.7156 31.6127 18.6743 31.5131 18.6009 31.4397C18.5275 31.3662 18.4279 31.325 18.3241 31.325H16.9121C16.8082 31.325 16.7087 31.3662 16.6352 31.4397C16.5618 31.5131 16.5206 31.6127 16.5206 31.7165V37.4941C16.5206 37.598 16.5618 37.6975 16.6352 37.771C16.7087 37.8444 16.8082 37.8856 16.9121 37.8856H18.3241C18.4279 37.8856 18.5275 37.8444 18.6009 37.7709C18.6743 37.6975 18.7156 37.598 18.7156 37.4941ZM22.3552 37.4941V31.7165C22.3552 31.6127 22.3139 31.5131 22.2405 31.4397C22.1671 31.3662 22.0675 31.325 21.9637 31.325H20.5517C20.4478 31.325 20.3483 31.3662 20.2748 31.4397C20.2014 31.5131 20.1602 31.6127 20.1602 31.7165V37.4941C20.1602 37.598 20.2014 37.6975 20.2748 37.771C20.3483 37.8444 20.4478 37.8856 20.5517 37.8856H21.9637C22.0675 37.8856 22.1671 37.8444 22.2405 37.7709C22.3139 37.6975 22.3552 37.598 22.3552 37.4941ZM25.9949 37.4941V31.7165C25.9949 31.6127 25.9536 31.5131 25.8802 31.4397C25.8068 31.3662 25.7072 31.325 25.6034 31.325H24.1914C24.0875 31.325 23.9879 31.3662 23.9145 31.4397C23.8411 31.5131 23.7999 31.6127 23.7999 31.7165V37.4941C23.7999 37.598 23.8411 37.6975 23.9145 37.771C23.9879 37.8444 24.0875 37.8856 24.1914 37.8856H25.6034C25.7072 37.8856 25.8068 37.8444 25.8802 37.7709C25.9536 37.6975 25.9948 37.598 25.9949 37.4941ZM28.4611 17.5527V16.5804C28.4611 16.4738 28.4188 16.3715 28.3434 16.2962C28.268 16.2208 28.1658 16.1784 28.0592 16.1784H14.4563C14.3497 16.1784 14.2474 16.2208 14.1721 16.2962C14.0967 16.3715 14.0543 16.4738 14.0543 16.5804V17.5527C14.0543 17.6593 14.0967 17.7615 14.1721 17.8369C14.2474 17.9123 14.3497 17.9546 14.4563 17.9546H28.0592C28.112 17.9546 28.1642 17.9442 28.213 17.924C28.2618 17.9038 28.3061 17.8742 28.3434 17.8369C28.3807 17.7996 28.4103 17.7553 28.4305 17.7065C28.4507 17.6577 28.4611 17.6054 28.4611 17.5527ZM28.4611 29.2062V28.234C28.4611 28.1274 28.4188 28.0251 28.3434 27.9498C28.268 27.8744 28.1658 27.832 28.0592 27.832H14.4563C14.3497 27.832 14.2474 27.8744 14.1721 27.9498C14.0967 28.0251 14.0543 28.1274 14.0543 28.234V29.2062C14.0543 29.3129 14.0967 29.4151 14.1721 29.4905C14.2474 29.5659 14.3497 29.6082 14.4563 29.6082H28.0592C28.112 29.6082 28.1642 29.5978 28.213 29.5776C28.2618 29.5574 28.3061 29.5278 28.3434 29.4905C28.3807 29.4532 28.4103 29.4089 28.4305 29.3601C28.4507 29.3113 28.4611 29.259 28.4611 29.2062Z" fill="#2B3B47"/>
<path id="Vector_3" d="M16.4507 39.6896H16.4412C16.3168 39.6896 16.1975 39.6401 16.1095 39.5521C16.0215 39.4642 15.9721 39.3448 15.9721 39.2204V37.661C15.9721 37.5366 16.0215 37.4173 16.1095 37.3293C16.1975 37.2413 16.3168 37.1919 16.4412 37.1919H16.4507C16.5751 37.1919 16.6944 37.2413 16.7824 37.3293C16.8704 37.4173 16.9198 37.5366 16.9198 37.661V39.2204C16.9198 39.3448 16.8704 39.4641 16.7824 39.5521C16.6944 39.6401 16.5751 39.6895 16.4507 39.6896ZM11.8655 39.2204V37.661C11.8655 37.5366 11.816 37.4173 11.7281 37.3293C11.6401 37.2413 11.5207 37.1919 11.3963 37.1919H11.3869C11.2624 37.1919 11.1431 37.2413 11.0551 37.3293C10.9672 37.4173 10.9177 37.5366 10.9177 37.661V39.2204C10.9177 39.3448 10.9672 39.4642 11.0551 39.5521C11.1431 39.6401 11.2624 39.6896 11.3869 39.6896H11.3963C11.5207 39.6895 11.6401 39.6401 11.728 39.5521C11.816 39.4641 11.8654 39.3448 11.8655 39.2204Z" fill="#E2AF8D"/>
<path id="Vector_4" d="M10.9607 35.5049H16.9233V37.7952H10.9607V35.5049Z" fill="#E5E4DF"/>
<path id="Vector_5" d="M14.668 37.8125L16.9529 35.5424V36.8383L15.9638 37.8125H14.668ZM12.2126 37.8125H13.5084L15.7987 35.4688H14.5028L12.2126 37.8125ZM12.0473 35.4688L10.9373 36.5941V37.8125H11.053L13.3433 35.4688H12.0473Z" fill="#FF473E"/>
<path id="Vector_6" d="M39.6255 29.0467C39.625 29.0395 39.6332 29.0323 39.6318 29.0252C39.6305 29.0189 39.6326 29.0131 39.6307 29.007C39.6293 29.0025 39.6305 28.9979 39.6286 28.9934C39.6261 28.9871 39.6232 28.981 39.6199 28.975C39.6179 28.9714 39.6169 28.9677 39.6146 28.9642C39.6023 28.9456 39.5864 28.9296 39.5679 28.9172C39.5636 28.9143 39.559 28.9124 39.5546 28.9099C39.5494 28.9071 39.5444 28.9039 39.539 28.9017C39.5333 28.8993 39.5274 28.8979 39.5215 28.8962C39.5167 28.8948 39.5123 28.9018 39.5073 28.9009C39.4964 28.8987 39.4853 28.9063 39.4741 28.9063H36.0212C36.0101 28.9063 35.999 28.8987 35.988 28.9009C35.9831 28.9018 35.9787 28.8992 35.9739 28.9006C35.968 28.9024 35.9621 28.9015 35.9564 28.9038C35.9508 28.9061 35.9458 28.9081 35.9407 28.911C35.9362 28.9134 35.9315 28.9149 35.9273 28.9177C35.9087 28.9301 35.8927 28.946 35.8802 28.9645C35.878 28.968 35.8764 28.9716 35.8744 28.9752C35.8709 28.9812 35.8673 28.987 35.8647 28.9936C35.8629 28.9981 35.8619 29.0026 35.8605 29.0071C35.8586 29.0131 35.8563 29.0189 35.8551 29.0252C35.8537 29.0324 35.8573 29.0396 35.8567 29.0468C35.8565 29.0506 35.8594 29.0542 35.8594 29.0581V32.3438H32.5682C32.5571 32.3435 32.546 32.3443 32.535 32.3461C32.5301 32.347 32.5256 32.3484 32.5208 32.3498C32.515 32.3515 32.509 32.3526 32.5033 32.3549C32.4978 32.3572 32.4928 32.3602 32.4876 32.3631C32.4832 32.3655 32.4785 32.3674 32.4742 32.3702C32.4556 32.3827 32.4396 32.3987 32.4272 32.4173C32.4249 32.4207 32.4233 32.4245 32.4213 32.4281C32.4179 32.4341 32.4143 32.44 32.4116 32.4465C32.4098 32.4509 32.4088 32.4556 32.4074 32.4601C32.4055 32.4661 32.4033 32.472 32.402 32.4782C32.4006 32.4853 32.4119 32.4926 32.4115 32.4998C32.4112 32.5036 32.4219 32.5072 32.4219 32.5111V35.7813H29.1152C29.1041 35.7813 29.093 35.7891 29.082 35.7913C29.0771 35.7922 29.0726 35.7974 29.0679 35.7988C29.062 35.8005 29.0561 35.8035 29.0504 35.8059C29.0448 35.8081 29.0398 35.8121 29.0347 35.815C29.0302 35.8174 29.0255 35.8199 29.0212 35.8227C29.0026 35.8352 28.9866 35.8513 28.9742 35.8699C28.9719 35.8734 28.9704 35.8772 28.9683 35.8808C28.9649 35.8868 28.9613 35.8928 28.9587 35.8993C28.9569 35.9038 28.9558 35.9084 28.9544 35.9129C28.9526 35.9189 28.9503 35.9248 28.949 35.931C28.9476 35.9381 28.9667 35.9454 28.9662 35.9526C28.966 35.9564 28.9844 35.96 28.9844 35.9639V39.4169C28.9844 39.4208 28.966 39.4244 28.9662 39.4282C28.9667 39.4354 28.9573 39.4427 28.9587 39.4498C28.96 39.4561 28.9574 39.462 28.9593 39.468C28.9607 39.4725 28.9593 39.4771 28.9611 39.4815C28.9637 39.488 28.9662 39.4939 28.9696 39.5C28.9716 39.5035 28.9725 39.5073 28.9748 39.5107C28.9873 39.5293 29.003 39.5453 29.0215 39.5578C29.0258 39.5606 29.0301 39.5625 29.0345 39.5649C29.0398 39.5678 29.0448 39.571 29.0505 39.5734C29.0561 39.5757 29.0619 39.577 29.0676 39.5787C29.0724 39.5801 29.077 39.5935 29.082 39.5945C29.093 39.5967 29.104 39.6093 29.1151 39.6093H39.474C39.4851 39.6093 39.4962 39.5967 39.5071 39.5945C39.5121 39.5935 39.5167 39.5859 39.5215 39.5844C39.5273 39.5827 39.5331 39.5784 39.5387 39.5762C39.5444 39.5738 39.5494 39.5692 39.5548 39.5663C39.5591 39.5638 39.5637 39.5613 39.5679 39.5584C39.5865 39.546 39.6025 39.5296 39.6149 39.511C39.6172 39.5076 39.6187 39.5037 39.6207 39.5002C39.6241 39.4941 39.6277 39.4881 39.6305 39.4816C39.6323 39.4772 39.6332 39.4725 39.6347 39.468C39.6365 39.462 39.6388 39.4561 39.6401 39.4498C39.6415 39.4427 39.6247 39.4354 39.6252 39.4282C39.6255 39.4244 39.6093 39.4208 39.6093 39.4169V29.0581C39.6095 29.0542 39.6257 29.0506 39.6255 29.0467ZM29.297 36.373L30.6145 37.6905L29.297 39.008V36.373ZM34.542 37.6905L35.8595 36.373V39.008L34.542 37.6905ZM31.1045 37.6905L32.422 36.373V39.008L31.1045 37.6905ZM36.172 35.555V32.9201L37.4894 34.2375L36.172 35.555ZM37.7477 34.4639L39.0651 35.7813H36.4302L37.7477 34.4639ZM36.4303 32.6563H39.0652L37.7478 33.9738L36.4303 32.6563ZM36.4303 32.3438L37.7477 31.0263L39.0651 32.3438H36.4303ZM35.8595 35.555L34.542 34.2376L35.8595 32.9201V35.555ZM35.6123 35.7813H32.9773L34.2948 34.4639L35.6123 35.7813ZM34.052 37.6905L32.7345 39.008V36.373L34.052 37.6905ZM32.9773 36.172H35.6123L34.2948 37.4895L32.9773 36.172ZM37.4894 37.6905L36.172 39.008V36.3731L37.4894 37.6905ZM36.4303 36.172H39.0652L37.7478 37.4895L36.4303 36.172ZM37.9796 34.2375L39.297 32.9201V35.555L37.9796 34.2375ZM37.9796 30.7846L39.297 29.4671V32.102L37.9796 30.7846ZM37.7477 30.5363L36.4303 29.2188H39.0652L37.7477 30.5363ZM37.4894 30.7846L36.172 32.102V29.4671L37.4894 30.7846ZM34.2948 33.9738L32.9773 32.6563H35.6122L34.2948 33.9738ZM34.052 34.2375L32.7345 35.555V32.9201L34.052 34.2375ZM30.8418 37.4895L29.5243 36.172H32.1593L30.8418 37.4895ZM30.8418 37.9013L32.1593 39.2188H29.5243L30.8418 37.9013ZM34.2948 37.9013L35.6123 39.2188H32.9773L34.2948 37.9013ZM37.7477 37.9013L39.0651 39.2188H36.4302L37.7477 37.9013ZM37.9796 37.6905L39.297 36.373V39.0079L37.9796 37.6905Z" fill="#34454E"/>
<path id="Vector_7" d="M27.3827 5.59114C27.3648 5.59114 27.3471 5.58894 27.3298 5.58458L7.37531 0.550049L1.25648 5.18669C1.21082 5.21998 1.15393 5.23401 1.09803 5.22578C1.04213 5.21755 0.9917 5.18771 0.957579 5.14268C0.923458 5.09764 0.908376 5.04101 0.915578 4.98497C0.922779 4.92894 0.951689 4.87796 0.996087 4.84302L7.27992 0.0812988L27.4352 5.16645C27.4861 5.17932 27.5306 5.21036 27.5603 5.25373C27.59 5.2971 27.6028 5.34981 27.5964 5.40197C27.5899 5.45413 27.5646 5.50214 27.5253 5.53697C27.4859 5.57181 27.4352 5.59107 27.3827 5.59114Z" fill="#D7F4F7"/>
<path id="Vector_8" d="M7.05772 0.315674H7.35077C7.50207 0.315674 7.64717 0.375777 7.75415 0.48276C7.86114 0.589744 7.92124 0.734845 7.92124 0.886143V3.31146H5.76538L6.5096 0.728174C6.54385 0.609266 6.61585 0.504722 6.71472 0.430314C6.81359 0.355906 6.93398 0.315669 7.05772 0.315674Z" fill="#34454E"/>
<path id="Vector_9" d="M7.40999 38.692H5.02327C4.88235 38.692 4.74721 38.6361 4.64757 38.5364C4.54792 38.4368 4.49194 38.3016 4.49194 38.1607V3.28523C4.49194 3.14432 4.54792 3.00917 4.64757 2.90953C4.74721 2.80989 4.88235 2.75391 5.02327 2.75391H7.40999C7.55091 2.75391 7.68605 2.80989 7.7857 2.90953C7.88534 3.00917 7.94132 3.14432 7.94132 3.28523V38.1606C7.94133 38.2304 7.92759 38.2995 7.9009 38.364C7.8742 38.4285 7.83506 38.487 7.78572 38.5364C7.73638 38.5857 7.67781 38.6249 7.61334 38.6516C7.54887 38.6783 7.47977 38.692 7.40999 38.692Z" fill="#C5CDD9"/>
<path id="Vector_10" d="M8.62507 37.478H3.80952C3.74187 37.478 3.67699 37.5049 3.62915 37.5527C3.58132 37.6006 3.55444 37.6655 3.55444 37.7331V39.2412C3.55444 39.3088 3.58132 39.3737 3.62915 39.4215C3.67699 39.4694 3.74187 39.4962 3.80952 39.4962H8.62507C8.69272 39.4962 8.7576 39.4694 8.80544 39.4215C8.85327 39.3737 8.88015 39.3088 8.88015 39.2412V37.7331C8.88015 37.6655 8.85327 37.6006 8.80544 37.5527C8.7576 37.5049 8.69272 37.478 8.62507 37.478Z" fill="#34454E"/>
<path id="Vector_11" d="M27.5908 7.96253H4.0746C4.02967 7.96254 3.98511 7.95447 3.94304 7.9387L0.797881 6.76026C0.726377 6.73347 0.664754 6.6855 0.621252 6.62274C0.57775 6.55999 0.554442 6.48545 0.554443 6.40909V5.1687C0.554443 5.06924 0.593952 4.97386 0.664278 4.90354C0.734604 4.83321 0.829987 4.7937 0.929443 4.7937H27.5908C27.6902 4.7937 27.7856 4.83321 27.8559 4.90354C27.9263 4.97386 27.9658 5.06924 27.9658 5.1687V7.58753C27.9658 7.63678 27.9561 7.68555 27.9372 7.73105C27.9184 7.77655 27.8908 7.81789 27.856 7.85272C27.8211 7.88754 27.7798 7.91516 27.7343 7.934C27.6888 7.95285 27.64 7.96254 27.5908 7.96253Z" fill="#C5CDD9"/>
<path id="Vector_12" d="M24.0619 10.7031V10.7757C23.9057 10.7323 23.7725 10.708 23.6118 10.708C22.7138 10.708 21.9919 11.436 21.9919 12.334C21.9919 13.232 22.7109 13.9599 23.6087 13.9599C23.7694 13.9599 23.9056 13.9357 24.0619 13.8923V13.9844H30.39V10.7031H24.0619Z" fill="#2D93C7"/>
<path id="Vector_13" d="M30.3601 13.9599C31.258 13.9599 31.986 13.2319 31.986 12.3339C31.986 11.436 31.258 10.708 30.3601 10.708C29.4621 10.708 28.7341 11.436 28.7341 12.3339C28.7341 13.2319 29.4621 13.9599 30.3601 13.9599Z" fill="#FECD57"/>
<path id="Vector_14" d="M25.5186 13.6443C25.3644 13.6443 25.2165 13.583 25.1075 13.474C24.9985 13.365 24.9373 13.2171 24.9373 13.063V6.66897C24.9373 6.5148 24.9985 6.36693 25.1075 6.25791C25.2165 6.14889 25.3644 6.08765 25.5186 6.08765C25.6728 6.08765 25.8206 6.14889 25.9296 6.25791C26.0387 6.36693 26.0999 6.5148 26.0999 6.66897V13.063C26.0999 13.1393 26.0849 13.2149 26.0557 13.2854C26.0265 13.356 25.9837 13.4201 25.9297 13.474C25.8757 13.528 25.8116 13.5708 25.7411 13.6001C25.6705 13.6293 25.5949 13.6443 25.5186 13.6443Z" fill="#597B91"/>
<path id="Vector_15" d="M26.953 15.1568C25.8415 15.1568 24.9373 14.2526 24.9373 13.1411C24.9373 12.987 24.9985 12.8391 25.1075 12.7301C25.2165 12.6211 25.3644 12.5598 25.5186 12.5598C25.6728 12.5598 25.8206 12.6211 25.9296 12.7301C26.0387 12.8391 26.0999 12.987 26.0999 13.1411C26.0999 13.6115 26.4825 13.9941 26.9529 13.9941C27.4233 13.9941 27.8058 13.6115 27.8058 13.1411C27.8058 12.987 27.8671 12.8391 27.9761 12.7301C28.0851 12.6211 28.233 12.5598 28.3872 12.5598C28.5414 12.5598 28.6892 12.6211 28.7982 12.7301C28.9073 12.8391 28.9685 12.987 28.9685 13.1411C28.9686 14.2525 28.0644 15.1568 26.953 15.1568Z" fill="#597B91"/>
<path id="Vector_16" d="M30.3606 13.3902C30.9439 13.3902 31.4168 12.9173 31.4168 12.334C31.4168 11.7507 30.9439 11.2778 30.3606 11.2778C29.7773 11.2778 29.3044 11.7507 29.3044 12.334C29.3044 12.9173 29.7773 13.3902 30.3606 13.3902Z" fill="#2B3B47"/>
<path id="Vector_17" d="M27.2625 10.708H23.6952V13.9599H27.1843L27.2625 10.708Z" fill="#2D93C7"/>
<path id="Vector_18" d="M4.48022 9.77271H7.92069V10.689H4.48022V9.77271Z" fill="#2D93C7"/>
<path id="Vector_19" d="M26.541 4.9794C26.4853 4.91775 26.4049 4.91299 26.3431 4.96885L23.6705 7.40166V5.01471C23.6705 4.95525 23.6206 4.90127 23.5663 4.87713C23.5398 4.86523 23.5103 4.86131 23.4816 4.86585C23.4528 4.87038 23.426 4.88318 23.4044 4.90268L20.6236 7.40322V5.13799C20.6236 5.1276 20.615 5.11744 20.6131 5.1076C20.6212 5.06307 20.6061 5.01557 20.5734 4.9794C20.5176 4.91775 20.4133 4.91299 20.3515 4.96885L17.6549 7.40166V5.01471C17.6549 4.95525 17.6271 4.90127 17.5727 4.87713C17.5184 4.85283 17.4439 4.86291 17.3997 4.90268L14.608 7.40322V5.13799C14.608 5.12768 14.6214 5.11752 14.6195 5.10775C14.6277 5.06322 14.6236 5.01557 14.5908 4.9794C14.5349 4.91768 14.4531 4.91299 14.3913 4.96885L11.7174 7.40166V5.01471C11.7174 4.95525 11.6726 4.90127 11.6183 4.87713C11.5913 4.86525 11.5615 4.86134 11.5323 4.86586C11.5031 4.87039 11.4759 4.88316 11.4538 4.90268L8.67048 7.40322V5.13799C8.67048 5.12768 8.66697 5.11752 8.66501 5.10775C8.66912 5.08495 8.66791 5.0615 8.66147 5.03923C8.65503 5.01697 8.64355 4.99649 8.6279 4.9794C8.57205 4.91768 8.46392 4.91299 8.4022 4.96885L5.70173 7.40166V5.01471C5.70173 4.95525 5.67908 4.90127 5.6247 4.87713C5.57033 4.85283 5.51298 4.86291 5.46876 4.90268L2.87697 7.23604C2.81509 7.29166 2.81158 7.38697 2.8672 7.44885C2.92283 7.51065 3.00087 7.51572 3.06283 7.46018L5.38923 5.35283V7.74127C5.38923 7.80088 5.4422 7.85486 5.49665 7.879C5.51626 7.88768 5.54603 7.89197 5.56665 7.89197C5.60337 7.89197 5.64087 7.87861 5.66915 7.85299L8.35798 5.42018V7.74135C8.35798 7.8008 8.39611 7.85479 8.45048 7.87893C8.47017 7.88768 8.49267 7.89197 8.51337 7.89197C8.54986 7.89197 8.59087 7.87869 8.61908 7.8533L11.4049 5.35283V7.74127C11.4049 7.80088 11.4358 7.85486 11.4902 7.879C11.5447 7.90307 11.6251 7.89283 11.6693 7.85299L14.3736 5.42018V7.74135C14.3736 7.8008 14.3897 7.85479 14.444 7.87893C14.4984 7.90322 14.5395 7.89315 14.5838 7.85338L17.3424 5.35283V7.74127C17.3424 7.80088 17.3902 7.85486 17.4447 7.879C17.4643 7.88768 17.4916 7.89197 17.5122 7.89197C17.5489 7.89197 17.5902 7.87861 17.6185 7.85299L20.3111 5.42018V7.74135C20.3111 7.8008 20.3442 7.85479 20.3985 7.87893C20.4182 7.88768 20.4381 7.89197 20.4589 7.89197C20.4954 7.89197 20.5402 7.87869 20.5684 7.8533L23.358 5.35283V7.74127C23.358 7.80088 23.3838 7.85486 23.4383 7.879C23.4926 7.90315 23.5517 7.89299 23.5959 7.85299L26.5327 5.19221C26.5945 5.13643 26.5969 5.04111 26.541 4.9794Z" fill="#F4F3EF"/>
<path id="Vector_20" d="M24.8435 7.28345H26.2017V8.64165H24.8435V7.28345Z" fill="#2B3B47"/>
<path id="Vector_21" d="M25.5198 7.96249C26.2342 7.96249 26.8133 7.38336 26.8133 6.66897C26.8133 5.95458 26.2342 5.37546 25.5198 5.37546C24.8054 5.37546 24.2263 5.95458 24.2263 6.66897C24.2263 7.38336 24.8054 7.96249 25.5198 7.96249Z" fill="#2D93C7"/>
<path id="Vector_22" d="M25.5226 7.34812C25.8976 7.34812 26.2016 7.04409 26.2016 6.66905C26.2016 6.29402 25.8976 5.98999 25.5226 5.98999C25.1475 5.98999 24.8435 6.29402 24.8435 6.66905C24.8435 7.04409 25.1475 7.34812 25.5226 7.34812Z" fill="white"/>
<path id="Vector_23" d="M4.48022 4.7937H7.92062V7.96261H4.48022V4.7937Z" fill="#34454E"/>
</g>
<defs>
<clipPath id="clip0_125_18302">
<rect width="40" height="40" fill="white" transform="translate(-0.000244141)"/>
</clipPath>
</defs>
</svg>
