<svg width="80" height="64" viewBox="0 0 80 64" fill="none" xmlns="http://www.w3.org/2000/svg">
<g id="Group 812">
<g id="Group">
<path id="Vector" d="M54.4035 32.4625C53.0438 31.8797 51.4169 32.6376 50.7667 34.1563L42.7387 53.2555C42.1502 54.6322 42.6686 56.1782 43.9017 56.7066C45.1331 57.2339 46.6107 56.545 47.2006 55.1667L55.8784 36.4307C56.5294 34.9137 55.7598 33.0446 54.4035 32.4625Z" fill="#DBB595"/>
<path id="Vector_2" d="M60.1931 34.8227C58.7729 34.2391 56.989 34.8127 56.361 36.3414L47.3825 59.2975C46.813 60.6818 47.3953 62.2366 48.6844 62.7658C49.9717 63.2945 51.4777 62.5989 52.0473 61.2134L61.8692 38.7206C62.4954 37.1922 61.6136 35.4064 60.1931 34.8227Z" fill="#DBB595"/>
<path id="Vector_3" d="M65.9019 37.2795C64.5303 36.7352 62.7523 37.4445 62.1457 38.9818L54.8275 57.9723C54.2188 59.5066 54.8401 61.1926 56.2127 61.7368C57.5864 62.2816 59.1915 61.4777 59.8006 59.9428L67.6331 41.157C68.2408 39.62 67.275 37.824 65.9019 37.2795Z" fill="#DBB595"/>
<path id="Vector_4" d="M71.7518 39.0147C70.4529 38.5219 68.6355 39.2439 68.0495 40.7855L64.4174 51.897C63.9088 53.2368 64.4105 54.6691 65.5373 55.0984C66.6643 55.526 67.991 54.7871 68.4996 53.4476L72.22 42.6124C72.8074 41.0684 73.0495 39.5082 71.7518 39.0147Z" fill="#DBB595"/>
<path id="Vector_5" d="M58.3023 17.414C58.3023 17.414 53.1084 20.7208 50.4652 22.2818C49.1186 23.0833 47.4496 26.1149 45.3904 28.8178C43.4139 31.4154 40.925 33.277 41.1962 34.3023C41.94 37.1153 45.927 35.1854 46.3808 34.9268C50.2351 32.7217 53.8109 27.9852 53.8109 27.9852L60.3253 26.1288L58.3023 17.414Z" fill="#DBB595"/>
</g>
<g id="Group 814">
<path id="Vector_6" d="M41.0286 34.7626C43.7826 34.1296 44.0848 30.3706 44.0848 30.3706C39.8861 33.9794 41.0286 34.7626 41.0286 34.7626Z" fill="#EFE4DC"/>
<path id="Vector_7" d="M66.791 51.6022C65.9603 51.3211 65.185 51.3931 64.8326 52.4342C64.8164 52.4817 64.7467 52.7966 64.7329 52.8469C64.4451 53.8863 64.9225 54.6113 65.7155 54.8797C66.4858 55.1408 67.2688 54.9198 67.6961 53.9455C67.7298 53.87 67.8142 53.5282 67.8398 53.453C68.1926 52.4122 67.6213 51.8839 66.791 51.6022Z" fill="#E8C7AF"/>
<path id="Vector_8" d="M66.7418 51.7218C65.9474 51.4393 65.2011 51.4971 64.8469 52.4924C64.8306 52.538 64.6367 53.2471 64.6223 53.295C64.3311 54.29 64.3584 55.4526 65.3449 55.8036C66.3309 56.155 67.0299 55.3253 67.4555 54.3952C67.4885 54.323 67.6969 53.5887 67.7225 53.5167C68.0768 52.5208 67.5361 52.0047 66.7418 51.7218Z" fill="#F7F3F0"/>
<path id="Vector_9" d="M66.7946 51.7467C66.0007 51.4642 65.2544 51.5218 64.9002 52.5174C64.8839 52.5628 64.7835 52.8421 64.7696 52.8904C64.4777 53.885 64.9262 54.589 65.6846 54.8589C66.4207 55.1213 67.1766 54.9205 67.6025 53.9904C67.6355 53.9182 67.75 53.6135 67.7761 53.5417C68.1305 52.5459 67.5886 52.0296 66.7946 51.7467Z" fill="#EFE4DC"/>
<path id="Vector_10" d="M57.8718 57.516C56.8706 57.143 55.9247 57.2024 55.4572 58.4566C55.4366 58.5142 55.3392 58.8948 55.3206 58.9555C54.932 60.2102 55.4868 61.1103 56.4417 61.4661C57.3693 61.8121 58.3313 61.5718 58.8874 60.4017C58.9313 60.3109 59.047 59.8978 59.0807 59.8077C59.548 58.5532 58.8718 57.8892 57.8718 57.516Z" fill="#E8C7AF"/>
<path id="Vector_11" d="M57.8071 57.6594C56.8509 57.2862 55.9405 57.3293 55.4725 58.5279C55.4506 58.5829 55.189 59.4388 55.1697 59.4967C54.7783 60.6971 54.7696 62.1133 55.9572 62.5769C57.1445 63.0407 58.0258 62.0562 58.5777 60.9397C58.6208 60.8533 58.9014 59.9669 58.9356 59.8803C59.4037 58.6813 58.7631 58.0329 57.8071 57.6594Z" fill="#F7F3F0"/>
<path id="Vector_12" d="M57.87 57.6916C56.9133 57.3185 56.0034 57.3614 55.5357 58.5602C55.5139 58.6152 55.3814 58.9513 55.3624 59.0093C54.9704 60.2097 55.4912 61.083 56.4037 61.4393C57.2909 61.7857 58.2187 61.569 58.7706 60.4523C58.8139 60.3655 58.9648 59.9989 58.9985 59.9126C59.4666 58.7136 58.8267 58.0652 57.87 57.6916Z" fill="#EFE4DC"/>
<path id="Vector_13" d="M50.4478 58.5611C49.4741 58.1221 48.5256 58.1184 47.9761 59.339C47.9513 59.3948 47.8292 59.7684 47.8062 59.8274C47.3349 61.0535 47.8289 61.9888 48.7579 62.407C49.661 62.814 50.6369 62.6385 51.269 61.5078C51.3187 61.4202 51.4614 61.0158 51.5015 60.9278C52.0514 59.7074 51.421 58.9997 50.4478 58.5611Z" fill="#E8C7AF"/>
<path id="Vector_14" d="M50.3747 58.7C49.4456 58.2642 48.5342 58.2466 47.9877 59.4116C47.962 59.4648 47.6442 60.3016 47.6213 60.358C47.1509 61.5296 47.0484 62.9421 48.2018 63.4838C49.3559 64.0257 50.3007 63.102 50.9256 62.0245C50.9745 61.9411 51.3136 61.0752 51.353 60.991C51.9002 59.8261 51.3039 59.1365 50.3747 58.7Z" fill="#F7F3F0"/>
<path id="Vector_15" d="M50.4335 58.7361C49.5042 58.3005 48.5927 58.2826 48.0462 59.4475C48.021 59.5011 47.8664 59.8276 47.8437 59.8843C47.373 61.0558 47.8343 61.962 48.7214 62.3782C49.5829 62.7826 50.5235 62.6281 51.1483 61.5507C51.1973 61.467 51.3721 61.1113 51.4119 61.0271C51.9581 59.8622 51.3627 59.1726 50.4335 58.7361Z" fill="#EFE4DC"/>
<path id="Vector_16" d="M45.6775 52.6454C44.7041 52.2066 43.7561 52.2029 43.2061 53.4235C43.1813 53.4794 43.0593 53.8529 43.0367 53.912C42.5655 55.1379 43.0589 56.0731 43.9883 56.4915C44.8916 56.8984 45.8671 56.7228 46.4996 55.5921C46.5492 55.5043 46.692 55.1001 46.7316 55.0121C47.2814 53.7919 46.6514 53.0842 45.6775 52.6454Z" fill="#E8C7AF"/>
<path id="Vector_17" d="M45.601 52.7839C44.672 52.3483 43.7606 52.3305 43.2141 53.4955C43.1889 53.5489 42.8705 54.3855 42.8482 54.4419C42.3777 55.6135 42.2744 57.026 43.4287 57.5675C44.5823 58.1094 45.5274 57.186 46.1525 56.1086C46.2009 56.025 46.5404 55.1591 46.5794 55.0749C47.1264 53.9098 46.5304 53.2204 45.601 52.7839Z" fill="#F7F3F0"/>
<path id="Vector_18" d="M45.6602 52.8196C44.7306 52.3838 43.8197 52.3663 43.2727 53.5312C43.2481 53.5846 43.0929 53.9113 43.0703 53.9679C42.5995 55.1393 43.0608 56.0455 43.9479 56.4621C44.8099 56.8665 45.7496 56.7118 46.3753 55.6345C46.4237 55.5508 46.5986 55.195 46.638 55.1111C47.185 53.9459 46.5896 53.2563 45.6602 52.8196Z" fill="#EFE4DC"/>
<path id="Vector_19" d="M55.373 24.5376C55.373 24.5376 54.0399 26.5336 53.3565 27.7767C52.6803 29.0066 51.25 32.9543 51.25 32.9543C51.25 32.9543 52.8321 29.4525 53.7189 27.9662C54.5998 26.4896 55.6851 24.8951 55.6851 24.8951L55.373 24.5376Z" fill="#CEA98D"/>
</g>
<g id="Group_2">
<path id="Vector_20" d="M67.0085 0.356415L63.4343 10.1068C62.3577 11.3854 56.959 18.3162 56.959 18.3162L50.125 35.8332L59.8645 40.058L67.9315 41.8657L72.3275 42.3957C72.3275 42.3957 76.1956 34.4214 77.7608 29.3074C79.2923 24.3039 79.4716 21.4204 79.9491 16.633C76.9825 10.2233 72.5203 4.64824 67.0085 0.356415Z" fill="#DBB595"/>
<path id="Vector_21" d="M23.0409 18.3159C23.0409 18.3159 17.6423 11.3853 16.5656 10.1065L12.9914 0.356499C7.47963 4.64832 3.01753 10.2234 0.0507812 16.6331C0.528065 21.4205 0.707556 24.304 2.23908 29.3073C3.80431 34.4213 7.67242 42.3956 7.67242 42.3956L12.0684 41.8656L20.1354 40.0579L29.8751 35.8332L23.0409 18.3159Z" fill="#DBB595"/>
<path id="Vector_22" d="M37.2612 53.256L29.2332 34.1568C28.583 32.6381 26.956 31.8802 25.5964 32.463C24.2401 33.0451 23.4707 34.914 24.1218 36.4313L32.7994 55.1674C33.3891 56.5457 34.8668 57.2346 36.0984 56.7073C37.331 56.1787 37.8496 54.6327 37.2612 53.256Z" fill="#DBB595"/>
<path id="Vector_23" d="M32.6131 59.2975L23.6346 36.3414C23.0068 34.8127 21.2225 34.2391 19.8025 34.8227C18.382 35.4064 17.5004 37.1922 18.1266 38.7204L27.9486 61.2132C28.5181 62.5987 30.0241 63.2945 31.3114 62.7656C32.6003 62.2366 33.1826 60.682 32.6131 59.2975Z" fill="#DBB595"/>
<path id="Vector_24" d="M25.1708 57.9722L17.8527 38.9818C17.2461 37.4446 15.4684 36.7352 14.0965 37.2795C12.7233 37.824 11.7576 39.62 12.3651 41.157L20.1978 59.9427C20.8068 61.4776 22.412 62.2816 23.7856 61.7368C25.1582 61.1926 25.7797 59.5066 25.1708 57.9722Z" fill="#DBB595"/>
<path id="Vector_25" d="M15.5827 51.8975L11.9506 40.7861C11.3646 39.2444 9.54718 38.5224 8.24836 39.0153C6.95059 39.5085 7.19269 41.0688 7.77994 42.6129L11.5003 53.4482C12.009 54.7874 13.3358 55.5265 14.4626 55.0989C15.5896 54.6697 16.0913 53.2373 15.5827 51.8975Z" fill="#DBB595"/>
<path id="Vector_26" d="M34.6067 28.8182C32.5475 26.1154 30.8784 23.0836 29.5322 22.2822C26.8889 20.7213 21.6949 17.4145 21.6949 17.4145L19.6719 26.1294L26.1862 27.9859C26.1862 27.9859 29.7619 32.7224 33.6163 34.9275C34.0705 35.1859 38.0571 37.116 38.801 34.303C39.0722 33.2775 36.5832 31.4157 34.6067 28.8182Z" fill="#DBB595"/>
</g>
<g id="Group 813">
<path id="Vector_27" d="M35.9141 30.3706C35.9141 30.3706 36.2161 34.1296 38.97 34.7626C38.97 34.7626 40.1126 33.9794 35.9141 30.3706Z" fill="#EFE4DC"/>
<path id="Vector_28" d="M15.2678 52.8469C15.2541 52.7967 15.1842 52.4817 15.1681 52.4342C14.8157 51.3931 14.0404 51.3211 13.2096 51.6022C12.3792 51.8839 11.8081 52.412 12.1609 53.453C12.1864 53.5282 12.2707 53.87 12.3046 53.9455C12.7318 54.9198 13.5149 55.1406 14.2852 54.8797C15.078 54.6113 15.5556 53.8863 15.2678 52.8469Z" fill="#E8C7AF"/>
<path id="Vector_29" d="M15.3749 53.295C15.3605 53.2471 15.1667 52.538 15.1504 52.4924C14.7962 51.4971 14.0498 51.4393 13.2554 51.7218C12.4614 52.0047 11.9206 52.521 12.2748 53.5165C12.3003 53.5884 12.5085 54.3228 12.5415 54.395C12.9672 55.3251 13.6664 56.1548 14.6522 55.8035C15.6388 55.4526 15.666 54.29 15.3749 53.295Z" fill="#F7F3F0"/>
<path id="Vector_30" d="M15.2341 52.8904C15.2203 52.8421 15.1197 52.563 15.1036 52.5174C14.7494 51.5218 14.0031 51.4642 13.2092 51.7467C12.4149 52.0296 11.8735 52.5459 12.228 53.5415C12.2539 53.6133 12.3687 53.918 12.4016 53.9902C12.8271 54.9203 13.5831 55.1211 14.3195 54.8588C15.0777 54.5892 15.5262 53.885 15.2341 52.8904Z" fill="#EFE4DC"/>
<path id="Vector_31" d="M24.6769 58.9555C24.6584 58.8947 24.5611 58.5142 24.5403 58.4566C24.0726 57.2024 23.1267 57.143 22.1257 57.516C21.1255 57.8892 20.4494 58.5532 20.9168 59.8077C20.9503 59.8978 21.0661 60.3109 21.1101 60.4017C21.6661 61.5718 22.6282 61.8123 23.5558 61.4661C24.5109 61.1105 25.0657 60.2102 24.6769 58.9555Z" fill="#E8C7AF"/>
<path id="Vector_32" d="M24.8288 59.4966C24.8094 59.4388 24.5478 58.5828 24.526 58.5278C24.0579 57.3292 23.1477 57.2863 22.1914 57.6593C21.2356 58.0328 20.5948 58.6814 21.063 59.8802C21.0969 59.9668 21.3775 60.8532 21.4207 60.9396C21.9727 62.0561 22.854 63.0406 24.0413 62.5768C25.2289 62.1134 25.2204 60.6972 24.8288 59.4966Z" fill="#F7F3F0"/>
<path id="Vector_33" d="M24.6366 59.0093C24.6178 58.9513 24.4851 58.615 24.4633 58.5602C23.9958 57.3614 23.0856 57.3185 22.1291 57.6916C21.1724 58.0652 20.5324 58.7136 21.0005 59.9124C21.0342 59.9988 21.1851 60.3656 21.2284 60.4521C21.7802 61.5688 22.7081 61.7855 23.5953 61.4391C24.5079 61.083 25.0284 60.2097 24.6366 59.0093Z" fill="#EFE4DC"/>
<path id="Vector_34" d="M32.1965 59.8274C32.1734 59.7684 32.0514 59.3948 32.0266 59.339C31.4771 58.1184 30.5287 58.1221 29.5548 58.5611C28.5818 58.9999 27.9513 59.7074 28.5011 60.9278C28.5412 61.0158 28.6838 61.4202 28.7337 61.5078C29.3658 62.6385 30.3416 62.814 31.2448 62.407C32.1738 61.9888 32.6679 61.0535 32.1965 59.8274Z" fill="#E8C7AF"/>
<path id="Vector_35" d="M32.3784 60.3579C32.3554 60.3015 32.0375 59.4647 32.012 59.4115C31.4655 58.2466 30.5541 58.2643 29.625 58.6999C28.6962 59.1362 28.0995 59.826 28.6465 60.9909C28.6861 61.0751 29.025 61.941 29.074 62.0244C29.699 63.1019 30.6438 64.0254 31.7977 63.4837C32.9515 62.9422 32.8488 61.5297 32.3784 60.3579Z" fill="#F7F3F0"/>
<path id="Vector_36" d="M32.1598 59.8843C32.1371 59.8276 31.9825 59.5011 31.9575 59.4475C31.4108 58.2826 30.4994 58.3005 29.57 58.7361C28.641 59.1726 28.0454 59.8622 28.5915 61.0271C28.6314 61.1115 28.8061 61.467 28.855 61.5507C29.4797 62.6281 30.4203 62.7826 31.2819 62.3782C32.1692 61.9618 32.6307 61.0558 32.1598 59.8843Z" fill="#EFE4DC"/>
<path id="Vector_37" d="M36.9616 53.912C36.9391 53.8529 36.8171 53.4794 36.7923 53.4235C36.2423 52.2029 35.2944 52.2066 34.3209 52.6454C33.347 53.0842 32.717 53.7919 33.2668 55.0123C33.3064 55.1003 33.449 55.5045 33.4988 55.5923C34.1313 56.723 35.1068 56.8987 36.0101 56.4917C36.9395 56.0729 37.4329 55.1379 36.9616 53.912Z" fill="#E8C7AF"/>
<path id="Vector_38" d="M37.1475 54.4418C37.125 54.3854 36.8066 53.5488 36.7816 53.4954C36.2351 52.3307 35.3237 52.3482 34.3946 52.7838C33.4653 53.2203 32.8691 53.9097 33.4161 55.0748C33.4553 55.1591 33.7946 56.025 33.843 56.1085C34.4681 57.186 35.4134 58.1093 36.5668 57.5675C37.7213 57.026 37.618 55.6135 37.1475 54.4418Z" fill="#F7F3F0"/>
<path id="Vector_39" d="M36.9255 53.9682C36.9029 53.9116 36.7479 53.5849 36.7231 53.5315C36.1761 52.3668 35.2652 52.3844 34.3356 52.82C33.4062 53.2565 32.8106 53.9462 33.3576 55.1113C33.3972 55.1954 33.5719 55.551 33.6205 55.6347C34.2459 56.712 35.1855 56.8667 36.0477 56.4623C36.935 56.0458 37.3964 55.1399 36.9255 53.9682Z" fill="#EFE4DC"/>
<path id="Vector_40" d="M26.645 27.7767C25.9614 26.5338 24.6287 24.5376 24.6287 24.5376L24.3164 24.8951C24.3164 24.8951 25.4019 26.4896 26.2828 27.9662C27.1695 29.4525 28.7515 32.9543 28.7515 32.9543C28.7515 32.9543 27.3213 29.0066 26.645 27.7767Z" fill="#CEA98D"/>
<path id="Vector_41" d="M60.5539 31.0087C59.2847 27.8661 57.0445 27.2945 54.9115 28.1558C52.7792 29.0169 51.5634 30.9842 52.8323 34.1267C53.7668 36.4406 57.3742 40.3967 59.507 39.5354C61.6396 38.6743 61.423 33.1611 60.5539 31.0087Z" fill="white"/>
<path id="Vector_42" d="M59.8272 35.4962C59.2545 34.0778 58.3652 34.1191 57.4033 34.5075C56.4415 34.896 55.7716 35.4843 56.3443 36.9025C56.9166 38.3198 58.8964 39.8742 59.4758 39.6401C60.0804 39.396 60.3995 36.9133 59.8272 35.4962Z" fill="#F4E028"/>
<path id="Vector_43" d="M71.1078 33.9181C69.9749 31.9164 67.8657 30.9684 64.916 32.637C62.744 33.8658 59.2933 37.959 60.4255 39.9607C61.5582 41.9626 66.9958 41.0279 69.0163 39.885C71.9658 38.2161 72.2399 35.92 71.1078 33.9181Z" fill="white"/>
<path id="Vector_44" d="M65.1338 37.2153C64.6228 36.3127 63.952 35.7255 62.6209 36.4786C61.2905 37.2313 60.008 39.3971 60.3157 39.9409C60.6367 40.5081 63.1398 40.5004 64.4701 39.7479C65.8017 38.9946 65.6444 38.1185 65.1338 37.2153Z" fill="#F4E028"/>
<path id="Vector_45" d="M69.5457 42.809C67.5468 41.3154 62.4107 39.8045 61.034 41.6469C59.6575 43.4897 62.7023 48.0909 64.5621 49.48C67.2774 51.5087 69.4893 50.8349 70.8656 48.9926C72.2423 47.1498 72.2611 44.8373 69.5457 42.809Z" fill="white"/>
<path id="Vector_46" d="M65.104 42.2559C63.8795 41.3411 61.3806 41.0389 61.0066 41.5396C60.6167 42.0616 61.6312 44.3501 62.8559 45.2649C64.081 46.1804 64.8202 45.6835 65.4408 44.8527C66.0618 44.0216 66.329 43.1713 65.104 42.2559Z" fill="#F4E028"/>
<path id="Vector_47" d="M59.2921 42.2814C57.0148 41.9581 54.4398 46.8375 54.1135 49.1358C53.6369 52.4911 55.2898 54.1087 57.5666 54.432C59.8437 54.7555 61.8816 53.6621 62.358 50.3067C62.7085 47.8359 61.5695 42.6049 59.2921 42.2814Z" fill="white"/>
<path id="Vector_48" d="M59.377 42.2076C58.732 42.1159 57.2112 44.1043 56.9965 45.6176C56.7813 47.1321 57.5718 47.5418 58.5988 47.6876C59.6257 47.8336 60.5003 47.6601 60.7152 46.1458C60.9302 44.6323 59.9962 42.2954 59.377 42.2076Z" fill="#F4E028"/>
<path id="Vector_49" d="M58.7517 40.5177C58.2606 38.2709 52.7894 37.5595 50.5219 38.0552C47.2107 38.779 46.2714 40.8918 46.7628 43.1388C47.2538 45.3854 48.9893 46.9138 52.3001 46.1903C54.7378 45.6573 59.243 42.7647 58.7517 40.5177Z" fill="white"/>
<path id="Vector_50" d="M61.3525 40.3894C61.0643 39.6757 60.1769 39.3605 59.371 39.6858C58.566 40.0109 58.1465 40.8537 58.4347 41.5674C58.7229 42.2815 59.6103 42.5966 60.4153 42.2715C61.2213 41.9463 61.6407 41.1033 61.3525 40.3894Z" fill="#E2CB23"/>
</g>
<g id="Group_3">
<path id="Vector_51" d="M58.8508 40.5692C58.7116 39.9325 56.3179 39.2014 54.8245 39.5276C53.3304 39.8541 53.2218 40.7379 53.4433 41.7515C53.6649 42.7646 54.1328 43.5236 55.6269 43.1969C57.1199 42.8705 58.9843 41.1799 58.8508 40.5692Z" fill="#F4E028"/>
<path id="Vector_52" d="M62.1039 40.0858C61.6351 38.9247 60.2639 38.3825 59.0426 38.8755C57.8223 39.3682 57.2126 40.7105 57.6815 41.8717C58.1506 43.0331 59.5213 43.5756 60.7416 43.0827C61.9629 42.5897 62.573 41.2472 62.1039 40.0858Z" fill="#F4E028"/>
</g>
</g>
</svg>
