<svg width="34" height="40" viewBox="0 0 34 40" fill="none" xmlns="http://www.w3.org/2000/svg">
<g id="Group">
<path id="XMLID_2038_" d="M27.8596 10.3621C27.8514 10.3621 27.8433 10.3621 27.8433 10.3621C24.5426 10.3294 25.0247 5.91767 25.0247 5.91767C25.1554 2.96832 27.6145 2.99283 27.8596 3.001C28.1047 2.99283 30.5639 2.96832 30.7028 5.9095C30.7028 5.9095 31.1848 10.3213 27.876 10.3539C27.876 10.3621 27.8678 10.3621 27.8596 10.3621Z" fill="#34454E"/>
<path id="XMLID_2038__2" d="M6.85962 10.3621C6.85145 10.3621 6.84328 10.3621 6.84328 10.3621C3.54263 10.3294 4.02465 5.91767 4.02465 5.91767C4.15537 2.96832 6.61452 2.99283 6.85962 3.001C7.10472 2.99283 9.56387 2.96832 9.70276 5.9095C9.70276 5.9095 10.1848 10.3213 6.87596 10.3539C6.87596 10.3621 6.86779 10.3621 6.85962 10.3621Z" fill="#34454E"/>
<path id="XMLID_2039_" d="M27.5007 14.8792L25.5529 12C25.5529 12 24.1797 12.5918 23.0603 13.4796C22.7692 13.7115 22.6349 13.8475 22.3737 14.1274C21.7543 14.7912 22.0155 18.6381 22.3737 20.0457C22.7319 21.4533 23.7842 23.4767 23.7842 23.4767C23.9931 23.9886 24.1275 24.5404 24.1797 25.0923L25.523 39.2082C25.5678 39.6561 25.9186 40 26.3365 40H27.5007H28.665C29.0829 40 29.4411 39.6561 29.4784 39.2082L30.8218 25.0923C30.874 24.5324 31.0083 23.9886 31.2173 23.4767C31.2173 23.4767 32.2696 21.4613 32.6278 20.0457C32.986 18.6381 33.2472 14.7912 32.6278 14.1274C32.3666 13.8475 32.2323 13.7115 31.9412 13.4796C30.8218 12.5998 29.4486 12 29.4486 12L27.5007 14.8792Z" fill="#34454E"/>
<path id="XMLID_2039__2" d="M6.50073 14.8792L4.5529 12C4.5529 12 3.17971 12.5918 2.06027 13.4796C1.76921 13.7115 1.63488 13.8475 1.37368 14.1274C0.754251 14.7912 1.01545 18.6381 1.37368 20.0457C1.7319 21.4533 2.78418 23.4767 2.78418 23.4767C2.99314 23.9886 3.12747 24.5404 3.17971 25.0923L4.52305 39.2082C4.56783 39.6561 4.91858 40 5.33651 40H6.50073H7.66496C8.08288 40 8.4411 39.6561 8.47842 39.2082L9.82175 25.0923C9.87399 24.5324 10.0083 23.9886 10.2173 23.4767C10.2173 23.4767 11.2696 21.4613 11.6278 20.0457C11.986 18.6381 12.2472 14.7912 11.6278 14.1274C11.3666 13.8475 11.2323 13.7115 10.9412 13.4796C9.82175 12.5998 8.44857 12 8.44857 12L6.50073 14.8792Z" fill="#34454E"/>
<path id="XMLID_2038__3" d="M17.0061 8.10455C16.9979 8.10455 16.9898 8.10455 16.9898 8.10455C13.6891 8.07187 14.1711 3.6601 14.1711 3.6601C14.3019 0.710757 16.761 0.735266 17.0061 0.743436C17.2512 0.735266 19.7104 0.710757 19.8492 3.65193C19.8492 3.65193 20.3313 8.0637 17.0224 8.09638C17.0224 8.10455 17.0143 8.10455 17.0061 8.10455Z" fill="#2D93C7"/>
<path id="XMLID_2039__3" d="M17.0071 13.5867L14.8747 10.6455C14.8747 10.6455 13.3714 11.2501 12.1459 12.1569C11.8273 12.3939 11.6803 12.5328 11.3943 12.8187C10.7162 13.4968 11.0022 17.4266 11.3943 18.8645C11.7865 20.3024 12.9384 22.3694 12.9384 22.3694C13.1672 22.8922 13.3142 23.456 13.3714 24.0197L14.842 38.4396C14.891 38.8971 15.275 39.2484 15.7325 39.2484H17.0071H18.2816C18.7391 39.2484 19.1312 38.8971 19.1721 38.4396L20.6427 24.0197C20.6999 23.4478 20.8469 22.8922 21.0757 22.3694C21.0757 22.3694 22.2276 20.3105 22.6198 18.8645C23.012 17.4266 23.2979 13.4968 22.6198 12.8187C22.3339 12.5328 22.1868 12.3939 21.8682 12.1569C20.6427 11.2583 19.1394 10.6455 19.1394 10.6455L17.0071 13.5867Z" fill="#2D93C7"/>
<path id="Vector" d="M23.1426 12.2957C24.2455 13.3987 23.6246 17.9983 23.3305 19.0604C22.9384 20.4902 21.8926 22.4183 21.7374 22.696C21.5413 23.1454 21.4187 23.6111 21.3697 24.0931L19.8991 38.513C19.8174 39.3545 19.1148 39.9836 18.2652 39.9836H15.7243C14.8828 39.9836 14.1802 39.3464 14.0903 38.513L12.6197 24.0931C12.5707 23.6111 12.4482 23.1372 12.2521 22.696C12.0969 22.4101 11.0511 20.4902 10.6589 19.0604C10.373 17.9983 9.74391 13.3987 10.8469 12.2957C11.1491 11.9934 11.3207 11.83 11.6802 11.5604C12.9629 10.6127 14.507 9.99179 14.5723 9.95911C14.891 9.82839 15.2504 9.9346 15.4465 10.2124L17.007 12.3284L18.5429 10.2124C18.739 9.9346 19.1067 9.83656 19.4171 9.95911C19.4825 9.98362 21.0184 10.6127 22.3093 11.5604C22.6687 11.83 22.8485 11.9934 23.1426 12.2957ZM22.0805 13.3251C21.8109 13.0555 21.6965 12.9493 21.4269 12.7532C20.7243 12.2304 19.9073 11.8137 19.3844 11.5686L17.6034 14.0196C17.4645 14.2075 17.2439 14.3219 17.007 14.3219C16.7701 14.3219 16.5495 14.2075 16.4106 14.0196L14.6295 11.5686C14.1148 11.8137 13.2978 12.2304 12.587 12.7532C12.3174 12.9493 12.2031 13.0555 11.9335 13.3251C11.5903 13.8807 11.6965 17.1568 12.1132 18.6683C12.4808 20.0081 13.5756 21.9853 13.592 22.0016C13.6001 22.0179 13.6165 22.0424 13.6246 22.067C13.8861 22.6634 14.0576 23.2924 14.123 23.946L15.5936 38.366C15.6018 38.4477 15.6671 38.5049 15.7488 38.5049H18.2897C18.3714 38.5049 18.4367 38.4477 18.4449 38.366L19.9155 23.946C19.9808 23.3006 20.1442 22.6634 20.4138 22.067C20.422 22.0424 20.4302 22.0261 20.4465 22.0016C20.4547 21.9853 21.5576 20 21.9253 18.6601C22.3174 17.1568 22.4237 13.8807 22.0805 13.3251Z" fill="#34454E"/>
<path id="Vector_2" d="M17.0803 8.83987C17.064 8.83987 17.0395 8.83987 17.0231 8.83987C17.015 8.83987 16.9905 8.83987 16.9823 8.83987C16.9659 8.83987 16.9496 8.83987 16.9333 8.83987C15.9202 8.82353 15.1032 8.46405 14.4905 7.76961C13.1996 6.32353 13.3957 3.88889 13.4202 3.59477C13.5509 0.939542 15.3891 0 16.9333 0C16.9578 0 16.9823 0 17.0068 0C17.0231 0 17.0476 0 17.0803 0C18.6163 0 20.4627 0.939542 20.5934 3.59477C20.6179 3.88889 20.814 6.31536 19.5231 7.76144C18.9104 8.45588 18.0852 8.81536 17.0803 8.83987ZM19.1146 3.73366C19.1146 3.71732 19.1146 3.70098 19.1146 3.68464C19.0248 1.69118 17.6604 1.47876 17.0803 1.47876H17.0395C17.0231 1.47876 16.9986 1.47876 16.9823 1.47876H16.9414C16.3614 1.47876 14.997 1.69118 14.9071 3.68464C14.9071 3.70098 14.9071 3.71732 14.9071 3.72549C14.8499 4.28922 14.8581 5.93954 15.6097 6.78105C15.9447 7.15686 16.4022 7.34477 16.9986 7.34477C17.0068 7.34477 17.015 7.34477 17.0231 7.34477C17.6195 7.3366 18.0771 7.15686 18.412 6.78105C19.1637 5.94771 19.1718 4.29739 19.1146 3.73366Z" fill="#34454E"/>
</g>
</svg>
