<svg width="40" height="40" viewBox="0 0 40 40" fill="none" xmlns="http://www.w3.org/2000/svg">
<g id="Group 806">
<path id="Vector" d="M18.6211 23.448C18.2073 23.448 17.9314 23.1721 17.9314 22.7583V17.9307C17.9314 16.4135 19.1728 15.1721 20.69 15.1721C26.4141 14.6894 35.1727 13.9307 35.7244 13.7929C36.9659 13.517 37.9313 12.3446 37.9313 11.0343V8.27566C37.9313 6.7584 36.6899 5.51707 35.1727 5.51707C34.7589 5.51707 34.483 5.24121 34.483 4.82738C34.483 4.41355 34.7589 4.1377 35.1727 4.1377C37.4486 4.1377 39.3107 5.99973 39.3107 8.27566V11.0343C39.3107 13.0343 37.9314 14.7584 36.0004 15.1722C35.3797 15.3102 23.1728 16.3446 20.759 16.5515C19.9314 16.5515 19.3107 17.1722 19.3107 17.9308V22.7584C19.3107 23.1721 19.0348 23.448 18.6211 23.448Z" fill="#34454E"/>
<path id="Vector_2" d="M23.4498 22.7588H13.7947L14.4844 26.2071H15.8637V37.2416C15.8637 38.7589 17.1051 40.0002 18.6223 40.0002C20.1394 40.0002 21.3808 38.7588 21.3808 37.2416V26.2071H22.7601L23.4498 22.7588Z" fill="#2D93C7"/>
<path id="Vector_3" d="M33.794 9.65516H4.13882C3.38022 9.65516 2.75952 9.03445 2.75952 8.27586V1.3793C2.75944 0.620703 3.38015 0 4.13882 0H33.794C34.5526 0 35.1733 0.620703 35.1733 1.3793V8.27586C35.1733 9.03445 34.5526 9.65516 33.794 9.65516Z" fill="#E0E0E0"/>
<path id="Vector_4" d="M2.75819 5.51707H1.3789C0.965068 5.51707 0.689209 5.24121 0.689209 4.82738C0.689209 4.41355 0.965068 4.1377 1.3789 4.1377H2.75819C3.17202 4.1377 3.44788 4.41355 3.44788 4.82738C3.44788 5.24121 3.17202 5.51707 2.75819 5.51707Z" fill="#C3C7CB"/>
<g id="Group">
<path id="Vector_5" d="M15.8611 34.4828H17.9301V33.1035H15.8611V34.4828Z" fill="#222D33"/>
<path id="Vector_6" d="M15.8611 37.2415H17.9301V35.8622H15.8611V37.2415Z" fill="#222D33"/>
</g>
<g id="Group_2">
<path id="Vector_7" d="M35.1734 2.06885H29.6561C29.2423 2.06885 28.9664 2.34471 28.9664 2.75854C28.9664 3.17236 29.2423 3.44822 29.6561 3.44822H35.1734V2.06885Z" fill="#C3C7CB"/>
<path id="Vector_8" d="M35.1733 6.20674H22.7595C22.3457 6.20674 22.0698 6.4826 22.0698 6.89643C22.0698 7.31026 22.3457 7.58612 22.7595 7.58612H35.1733V6.20674Z" fill="#C3C7CB"/>
<path id="Vector_9" d="M17.2423 2.06885H2.75952V3.44814H17.2423C17.6562 3.44814 17.932 3.17229 17.932 2.75846C17.932 2.34463 17.6561 2.06885 17.2423 2.06885Z" fill="#C3C7CB"/>
<path id="Vector_10" d="M10.3458 6.20674H2.75952V7.58604H10.3457C10.7595 7.58604 11.0354 7.31018 11.0354 6.89635C11.0354 6.48252 10.7595 6.20674 10.3458 6.20674Z" fill="#C3C7CB"/>
</g>
</g>
</svg>
