<svg width="40" height="34" viewBox="0 0 40 34" fill="none" xmlns="http://www.w3.org/2000/svg">
<g id="Group">
<g id="Layer_2_36_">
<g id="Group_2">
<path id="Vector" d="M14.2599 3.58821H25.8899V7.4797H29.3865V1.83993C29.3865 0.874491 28.6037 0.0916443 27.6382 0.0916443H12.5116C11.546 0.0916443 10.7633 0.874491 10.7633 1.83993V7.4797H14.26V3.58821H14.2599Z" fill="#34454E"/>
<path id="Vector_2" d="M35.2374 7.47971H29.3874H25.8909H14.2608H10.7642H4.76182C2.13167 7.47971 -0.000366211 9.61164 -0.000366211 12.2418V29.1462C-0.000366211 31.7763 2.13167 33.9084 4.76182 33.9084H35.2374C37.8676 33.9084 39.9996 31.7763 39.9996 29.1462V12.2419C39.9996 9.61175 37.8676 7.47971 35.2374 7.47971ZM20.1738 28.8816C15.9774 28.8816 12.5753 25.4797 12.5753 21.2832C12.5753 17.0867 15.9773 13.6848 20.1738 13.6848C24.3703 13.6848 27.7722 17.0867 27.7722 21.2832C27.7722 25.4797 24.3703 28.8816 20.1738 28.8816Z" fill="#EBEEEF"/>
<path id="Vector_3" d="M20.1743 13.6847C15.9779 13.6847 12.5758 17.0866 12.5758 21.2831C12.5758 25.4795 15.9778 28.8815 20.1743 28.8815C24.3709 28.8815 27.7727 25.4795 27.7727 21.2831C27.7727 17.0866 24.3709 13.6847 20.1743 13.6847ZM24.5873 21.6592C24.5873 22.2806 24.0836 22.7844 23.4621 22.7844H21.6757V24.5708C21.6757 25.1923 21.172 25.696 20.5505 25.696H19.798C19.1765 25.696 18.6727 25.1923 18.6727 24.5708V22.7844H16.8862C16.265 22.7844 15.761 22.2806 15.761 21.6592V20.9068C15.761 20.2854 16.2651 19.7815 16.8862 19.7815H18.6727V17.9952C18.6727 17.3736 19.1765 16.87 19.798 16.87H20.5505C21.172 16.87 21.6757 17.3737 21.6757 17.9952V19.7815H23.4621C24.0836 19.7815 24.5873 20.2854 24.5873 20.9068V21.6592Z" fill="#E74424"/>
<path id="Vector_4" d="M23.4624 19.7818H21.6761V17.9954C21.6761 17.3738 21.1723 16.8702 20.5508 16.8702H19.7983C19.1769 16.8702 18.673 17.374 18.673 17.9954V19.7818H16.8865C16.2653 19.7818 15.7614 20.2856 15.7614 20.907V21.6594C15.7614 22.2809 16.2654 22.7846 16.8865 22.7846H18.673V24.571C18.673 25.1925 19.1769 25.6963 19.7983 25.6963H20.5508C21.1723 25.6963 21.6761 25.1925 21.6761 24.571V22.7846H23.4624C24.084 22.7846 24.5876 22.2809 24.5876 21.6594V20.907C24.5876 20.2856 24.084 19.7818 23.4624 19.7818Z" fill="#EBEEEF"/>
</g>
</g>
</g>
</svg>
