<svg width="209" height="26" viewBox="0 0 209 26" fill="none" xmlns="http://www.w3.org/2000/svg">
<path d="M9.5293 21.4883C3.93848 21.4883 0.630371 18.0215 0.630371 12.1865V12.1621C0.630371 6.40039 3.93848 2.89697 9.37061 2.89697C13.7896 2.89697 17.1099 5.49707 17.4761 9.17139L17.4883 9.29346H12.3979L12.3735 9.18359C12.105 7.95068 10.8599 7.12061 9.37061 7.12061C7.17334 7.12061 5.90381 8.96387 5.90381 12.0889V12.1133C5.90381 15.3115 7.38086 17.2646 9.65137 17.2646C11.3359 17.2646 12.5322 16.3247 12.6787 14.8721L12.7031 14.6279H10.0176V11.1855H17.6836V13.5049C17.6836 18.5098 14.644 21.4883 9.5293 21.4883ZM26.8755 21.3418C22.4565 21.3418 19.7588 18.6318 19.7588 14.1396V14.1274C19.7588 9.63525 22.4565 6.9375 26.7168 6.9375C30.9648 6.9375 33.687 9.63525 33.687 13.8467V15.2261H24.6538C24.6782 16.9106 25.5327 17.8994 26.9731 17.8994C28.3159 17.8994 28.9385 17.0815 29.085 16.8618L29.1094 16.8252L33.626 16.813L33.5894 16.9717C33.2231 18.5464 31.624 21.3418 26.8755 21.3418ZM26.8511 10.3799C25.7036 10.3799 24.8979 11.1367 24.7026 12.4551H28.9995C28.8042 11.1367 27.9985 10.3799 26.8511 10.3799ZM42.6836 21C38.8506 21 37.3369 19.8892 37.3369 17.1792V10.8926H35.2739V7.2793H37.3369V4.26416H42.3418V7.2793H45.0151V10.8926H42.3418V16.0684C42.3418 16.9351 42.8423 17.3867 43.8921 17.3867C44.4292 17.3867 44.7222 17.3623 45.0151 17.3257V20.8169C44.5391 20.9146 43.6357 21 42.6836 21ZM60.0908 21C56.2578 21 54.7441 19.8892 54.7441 17.1792V10.8926H52.6812V7.2793H54.7441V4.26416H59.749V7.2793H62.4224V10.8926H59.749V16.0684C59.749 16.9351 60.2495 17.3867 61.2993 17.3867C61.8364 17.3867 62.1294 17.3623 62.4224 17.3257V20.8169C61.9463 20.9146 61.043 21 60.0908 21ZM65.2788 21V2.22559H70.2837V9.45215H70.5278C71.0894 7.93848 72.5054 6.9375 74.4097 6.9375C77.437 6.9375 78.9995 8.8418 78.9995 12.1377V21H73.9946V13.2485C73.9946 11.8203 73.4209 10.9658 72.1514 10.9658C70.9551 10.9658 70.2837 11.918 70.2837 13.2485V21H65.2788ZM84.5537 5.69238C83.1621 5.69238 82.0024 4.59375 82.0024 3.20215C82.0024 1.79834 83.1621 0.699707 84.5537 0.699707C85.9575 0.699707 87.105 1.79834 87.105 3.20215C87.105 4.59375 85.9575 5.69238 84.5537 5.69238ZM82.0513 21V7.2793H87.0562V21H82.0513ZM90.23 21V7.2793H95.2349V9.45215H95.479C96.0405 7.93848 97.4565 6.9375 99.3608 6.9375C102.388 6.9375 103.951 8.8418 103.951 12.1377V21H98.9458V13.2485C98.9458 11.8203 98.3721 10.9658 97.1025 10.9658C95.9062 10.9658 95.2349 11.918 95.2349 13.2485V21H90.23ZM113.436 25.8096C109.175 25.8096 106.88 24.125 106.612 21.7202L106.6 21.6104H111.446L111.47 21.6958C111.629 22.2451 112.3 22.6113 113.594 22.6113C115.035 22.6113 115.853 21.9521 115.853 20.7559V18.4121H115.608C114.961 19.8037 113.606 20.5117 111.678 20.5117C108.333 20.5117 106.27 17.936 106.27 13.9688V13.9443C106.27 9.7207 108.309 7.08398 111.751 7.08398C113.594 7.08398 115.035 7.96289 115.669 9.50098H115.853V7.2793H120.857V20.353C120.857 23.7222 117.989 25.8096 113.436 25.8096ZM113.631 16.9229C115.047 16.9229 115.877 15.7632 115.877 13.9565V13.9321C115.877 12.1255 115.035 10.978 113.631 10.978C112.239 10.978 111.397 12.1255 111.397 13.9199V13.9443C111.397 15.751 112.227 16.9229 113.631 16.9229ZM130.208 21.3418C125.838 21.3418 123.702 19.4741 123.433 17.0449L123.421 16.9351H128.255L128.292 17.0327C128.511 17.6064 129.085 18.0703 130.208 18.0703C131.172 18.0703 131.771 17.7407 131.771 17.1548V17.1426C131.771 16.5933 131.368 16.3003 130.257 16.0928L127.815 15.6289C125.142 15.1162 123.726 13.6636 123.726 11.5273V11.5151C123.726 8.64648 126.106 6.9375 130.025 6.9375C134.322 6.9375 136.324 9.06152 136.324 11.2466V11.332H131.783L131.758 11.2222C131.661 10.8071 131.099 10.1968 130.025 10.1968C129.109 10.1968 128.511 10.5386 128.511 11.1733V11.1855C128.511 11.7227 128.853 12.0034 130.074 12.2354L132.515 12.6992C135.42 13.2485 136.727 14.4204 136.727 16.5078V16.52C136.727 19.4863 134.114 21.3418 130.208 21.3418ZM149.861 21.1953C146.48 21.1953 144.466 18.6318 144.466 14.1519V14.1274C144.466 9.61084 146.395 7.08398 149.861 7.08398C151.741 7.08398 153.169 7.9751 153.804 9.50098H154.048V2.22559H159.053V21H154.048V18.937H153.804C153.218 20.3652 151.827 21.1953 149.861 21.1953ZM151.802 17.167C153.182 17.167 154.073 16.0562 154.073 14.1641V14.1396C154.073 12.2476 153.157 11.1123 151.802 11.1123C150.447 11.1123 149.544 12.272 149.544 14.1274V14.1519C149.544 16.0317 150.435 17.167 151.802 17.167ZM168.868 21.3418C164.339 21.3418 161.678 18.6807 161.678 14.1396V14.1152C161.678 9.68408 164.424 6.9375 168.868 6.9375C173.335 6.9375 176.058 9.65967 176.058 14.1152V14.1396C176.058 18.6929 173.409 21.3418 168.868 21.3418ZM168.868 17.6309C170.174 17.6309 170.931 16.3369 170.931 14.1519V14.1274C170.931 11.9912 170.149 10.6484 168.868 10.6484C167.586 10.6484 166.805 11.9912 166.805 14.1274V14.1519C166.805 16.3491 167.562 17.6309 168.868 17.6309ZM178.56 21V7.2793H183.565V9.45215H183.809C184.371 7.93848 185.787 6.9375 187.691 6.9375C190.718 6.9375 192.281 8.8418 192.281 12.1377V21H187.276V13.2485C187.276 11.8203 186.702 10.9658 185.433 10.9658C184.236 10.9658 183.565 11.918 183.565 13.2485V21H178.56ZM201.778 21.3418C197.359 21.3418 194.661 18.6318 194.661 14.1396V14.1274C194.661 9.63525 197.359 6.9375 201.619 6.9375C205.867 6.9375 208.589 9.63525 208.589 13.8467V15.2261H199.556C199.581 16.9106 200.435 17.8994 201.875 17.8994C203.218 17.8994 203.841 17.0815 203.987 16.8618L204.012 16.8252L208.528 16.813L208.492 16.9717C208.125 18.5464 206.526 21.3418 201.778 21.3418ZM201.753 10.3799C200.606 10.3799 199.8 11.1367 199.605 12.4551H203.902C203.707 11.1367 202.901 10.3799 201.753 10.3799Z" fill="url(#paint0_linear_141_2782)"/>
<defs>
<linearGradient id="paint0_linear_141_2782" x1="-1" y1="-3" x2="89.3054" y2="80.0682" gradientUnits="userSpaceOnUse">
<stop offset="0.567708" stop-color="#42ADE2"/>
<stop offset="1" stop-color="#6EB925"/>
</linearGradient>
</defs>
</svg>
