<svg width="32" height="40" viewBox="0 0 32 40" fill="none" xmlns="http://www.w3.org/2000/svg">
<g id="leaves-leaf-svgrepo-com-2">
<path id="Path 1518" d="M16.8004 15.7158C11.7737 12.9325 5.81066 12.5732 1.23934 14.7775C0.871045 14.9551 0.566879 15.2426 0.368736 15.6002C0.170594 15.9579 0.0882228 16.3682 0.13297 16.7747C0.689855 21.8194 4.15903 26.6824 9.18579 29.4668C14.2125 32.2512 20.1755 32.6094 24.7469 30.4051C25.1153 30.2276 25.4195 29.9402 25.6177 29.5825C25.8158 29.2248 25.8982 28.8144 25.8532 28.408C25.2964 23.3632 21.8272 18.5024 16.8004 15.7158Z" fill="#34454E"/>
<path id="Path 1519" d="M25.8517 28.4079C25.2948 23.3631 21.8257 18.5002 16.7989 15.7157C11.7721 12.9313 5.80914 12.5731 1.23782 14.7774C0.861731 14.9588 0.552825 15.2548 0.355469 15.6228C3.84894 17.5375 15.6777 24.0246 25.6414 29.5322C25.821 29.1864 25.8942 28.7952 25.8517 28.4079Z" fill="#6EB925"/>
<path id="Path 1520" d="M31.8545 14.0188C31.5703 8.28083 28.7235 3.02688 24.4375 0.306913C24.092 0.0880789 23.6873 -0.0182532 23.2789 0.00256435C22.8705 0.0233819 22.4785 0.170325 22.1571 0.423151C18.167 3.55946 15.8676 9.07336 16.1571 14.8113C16.4467 20.5492 19.2882 25.801 23.5742 28.5231C23.9195 28.7423 24.3243 28.8489 24.7327 28.8282C25.1411 28.8076 25.5331 28.6608 25.8545 28.4079C29.8447 25.2716 32.1441 19.7609 31.8545 14.0188Z" fill="#6EB925"/>
<path id="Path 1521" d="M25.8513 28.4079C29.8414 25.2716 32.1408 19.7577 31.8513 14.0187C31.5617 8.2797 28.7234 3.02681 24.4374 0.306839C24.0848 0.0834342 23.6704 -0.0223786 23.2539 0.00462099C23.4716 3.98207 24.2049 17.4519 24.7882 28.8232C25.1758 28.7925 25.5456 28.6481 25.8513 28.4079Z" fill="#6EB925"/>
<path id="Path 1522" d="M24.404 30.4252H24.3406C23.9928 30.4085 23.666 30.2544 23.4318 29.9968C23.1976 29.7392 23.0752 29.3992 23.0915 29.0514C23.1201 28.4449 23.1063 22.9151 23.0915 19.3297C23.091 19.1586 23.1245 18.989 23.1902 18.8309C23.2558 18.6728 23.3523 18.5294 23.474 18.409C23.5957 18.2886 23.7401 18.1936 23.8988 18.1296C24.0576 18.0657 24.2275 18.0339 24.3987 18.0363H24.405C24.5757 18.0334 24.7452 18.0643 24.9038 18.1273C25.0624 18.1903 25.207 18.2841 25.3291 18.4033C25.4513 18.5225 25.5486 18.6647 25.6154 18.8217C25.6822 18.9787 25.7173 19.1475 25.7185 19.3181C25.7185 20.2385 25.7587 28.3202 25.7185 29.1909C25.7011 29.5266 25.5545 29.8424 25.3095 30.0725C25.0645 30.3025 24.74 30.4289 24.404 30.4252Z" fill="#34454E"/>
<path id="Path 1523" d="M29.2608 40C28.9125 40 28.5784 39.8616 28.3321 39.6153C28.0857 39.3689 27.9474 39.0349 27.9474 38.6865V36.5731C27.9469 35.2466 27.5615 33.9487 26.8378 32.8369C26.1142 31.7252 25.0834 30.8473 23.8706 30.31C23.842 30.2973 23.8146 30.2836 23.7871 30.2688L15.8153 26.0419C15.507 25.8788 15.2761 25.5999 15.1735 25.2666C15.0708 24.9333 15.1048 24.5729 15.2679 24.2646C15.431 23.9563 15.7099 23.7254 16.0432 23.6228C16.3766 23.5201 16.737 23.5541 17.0453 23.7172L24.978 27.9239C26.6454 28.6719 28.0611 29.8857 29.0547 31.4195C30.0483 32.9532 30.5775 34.7414 30.5785 36.5689V38.6823C30.5792 38.8555 30.5456 39.0272 30.4797 39.1874C30.4137 39.3476 30.3166 39.4931 30.1941 39.6156C30.0716 39.7381 29.9261 39.8351 29.7659 39.9011C29.6057 39.9671 29.4341 40.0007 29.2608 40Z" fill="#34454E"/>
</g>
</svg>
