<svg width="40" height="40" viewBox="0 0 40 40" fill="none" xmlns="http://www.w3.org/2000/svg">
<g id="microscope-medical-svgrepo-com 1">
<path id="Vector" d="M16.5528 31.7303C16.5528 31.5236 16.5528 31.3168 16.5528 31.1101C16.6218 30.6966 16.2772 30.3521 15.8637 30.3521H4.83737C4.42385 30.3521 4.14819 30.6277 4.14819 31.0412V32.4195C4.14819 32.833 4.42385 33.1087 4.83737 33.1087H15.8637C16.2772 33.1087 16.5528 32.833 16.5528 32.4195V31.7303Z" fill="#C5CDD9"/>
<path id="Vector_2" d="M38.4998 40H12.4998C12.1998 40 11.9998 39.7 11.9998 39.25V37.75C11.9998 37.3 12.1998 37 12.4998 37H38.4997C38.7998 37 38.9998 37.3 38.9998 37.75V39.25C38.9998 39.7 38.7998 40 38.4998 40Z" fill="#34454E"/>
<path id="Vector_3" d="M28.9587 37.2434L26.8223 30.0763C26.0643 27.3886 23.5834 25.528 20.7579 25.528C17.2432 25.528 14.4177 28.3534 14.4177 31.8681V37.2434H28.9587Z" fill="#34454E"/>
<g id="Group">
<path id="Vector_4" d="M24.1334 31.7303C24.1334 29.8008 22.6173 28.2846 20.6877 28.2846C18.7581 28.2846 17.2419 29.8008 17.2419 31.7303C17.2419 33.6599 18.7581 35.1761 20.6877 35.1761C22.6173 35.1761 24.1334 33.6599 24.1334 31.7303Z" fill="#C5CDD9"/>
<path id="Vector_5" d="M28.2696 13.1349C28.2696 10.8607 26.4088 9 24.1347 9C21.8605 9 19.9998 10.8607 19.9998 13.1349C19.9998 15.4092 21.8605 17.2698 24.1347 17.2698C26.4088 17.2698 28.2696 15.4091 28.2696 13.1349Z" fill="#C5CDD9"/>
<g id="Group_2">
<path id="Vector_6" d="M22.8972 15.3079C22.628 15.3079 22.4484 15.2181 22.269 15.0387C21.91 14.6797 21.91 14.1411 22.269 13.7822L24.7819 11.2692C25.1409 10.9103 25.6794 10.9103 26.0384 11.2692C26.3974 11.6282 26.3974 12.1668 26.0384 12.5258L23.5255 15.0387C23.3459 15.2182 23.0766 15.3079 22.8972 15.3079Z" fill="#34454E"/>
<path id="Vector_7" d="M25.4101 15.3079C25.1409 15.3079 24.9614 15.2181 24.7819 15.0387L22.269 12.5258C21.91 12.1668 21.91 11.6282 22.269 11.2692C22.628 10.9103 23.1665 10.9103 23.5255 11.2692L26.0384 13.7822C26.3974 14.1411 26.3974 14.6797 26.0384 15.0387C25.8589 15.2182 25.6793 15.3079 25.4101 15.3079Z" fill="#34454E"/>
</g>
</g>
<path id="Vector_8" d="M26.6838 6.64532L23.238 4.30221L24.3407 2.57935L27.7864 4.85352L26.6838 6.64532Z" fill="#34454E"/>
<path id="Vector_9" d="M27.7842 4.85362L24.3385 2.51051C23.7182 2.09699 23.5805 1.20117 23.9939 0.580923C24.4074 -0.0393211 25.3032 -0.17711 25.9235 0.236334L29.3692 2.57944C29.9895 2.99297 30.1962 3.81993 29.7138 4.50903C29.3004 5.12927 28.4045 5.26714 27.7842 4.85362Z" fill="#C5CDD9"/>
<path id="Vector_10" d="M16.9703 20.9107L13.5935 18.5676L13.9381 15.5354L19.658 19.3946L16.9703 20.9107Z" fill="#2D93C7"/>
<path id="Vector_11" d="M14.9017 22.7715L12.6275 21.2553C12.2829 21.0486 12.214 20.6351 12.4208 20.2905L13.5923 18.5676L17.0381 20.9107L15.8665 22.6336C15.5908 22.9093 15.1773 22.9782 14.9017 22.7715Z" fill="#34454E"/>
<g id="Group_3">
<path id="Vector_12" d="M12.7638 24.701L11.5922 23.943C11.2476 23.7363 11.1787 23.3228 11.3855 22.9782L12.557 21.2553L14.8312 22.7715L13.6597 24.4943C13.5218 24.8388 13.0394 24.9078 12.7638 24.701Z" fill="#34454E"/>
<path id="Vector_13" d="M20.0016 13.1233C20.0016 10.8492 21.8624 8.98842 24.1365 8.98842C24.9635 8.98842 25.6527 9.19515 26.2728 9.60867L27.789 7.40342L22.069 3.54425L13.9371 15.5354L19.657 19.3945L21.6556 16.4312C20.6907 15.6732 20.0016 14.5017 20.0016 13.1233Z" fill="#34454E"/>
</g>
<g id="Group_4">
<path id="Vector_14" d="M19.7242 33.3842C19.5174 33.3842 19.3796 33.3152 19.2418 33.1775C18.9661 32.9018 18.9661 32.4883 19.2418 32.2126L21.1714 30.283C21.447 30.0074 21.8605 30.0074 22.1362 30.283C22.4119 30.5587 22.4119 30.9722 22.1362 31.2479L20.2066 33.1775C20.0687 33.3153 19.8619 33.3842 19.7242 33.3842Z" fill="#34454E"/>
<path id="Vector_15" d="M21.6537 33.3842C21.447 33.3842 21.3092 33.3152 21.1714 33.1775L19.2418 31.2479C18.9661 30.9722 18.9661 30.5587 19.2418 30.283C19.5174 30.0074 19.931 30.0074 20.2066 30.283L22.1362 32.2126C22.4119 32.4883 22.4119 32.9018 22.1362 33.1775C21.9983 33.3153 21.8605 33.3842 21.6537 33.3842Z" fill="#34454E"/>
</g>
<path id="Vector_16" d="M24.7576 26.9062C25.7224 27.6642 26.4804 28.7669 26.825 30.0073L27.4453 32.2125C30.133 29.6627 31.718 26.0791 31.718 22.0821C31.718 18.4986 30.4086 15.2595 28.2722 12.7097C28.2722 12.8476 28.2722 12.9854 28.2722 13.1232C28.2722 15.1907 26.7561 16.9136 24.7576 17.1892C25.6535 18.5675 26.2048 20.2904 26.2048 22.0822C26.2048 23.874 25.6535 25.5279 24.7576 26.9062Z" fill="#34454E"/>
</g>
</svg>
