<svg width="40" height="40" viewBox="0 0 40 40" fill="none" xmlns="http://www.w3.org/2000/svg">
<g id="paint-brush-art-svgrepo-com 1" clip-path="url(#clip0_125_18293)">
<path id="Vector" d="M14.0058 36.0128C16.3517 33.6669 16.5586 29.8722 14.3508 27.3883C12.9709 25.8704 11.453 25.3184 9.59015 25.4565C7.72731 25.5945 5.8644 27.0433 6.14038 28.9062C6.2784 29.9411 5.93341 31.0451 5.17441 31.8041C4.48443 32.632 2.48356 34.4948 -0.000244141 34.4948C-0.000244141 34.4948 9.03811 41.0494 14.0058 36.0128Z" fill="#34454E"/>
<path id="Vector_2" d="M38.9154 3.17089C38.8464 3.10187 38.7773 3.03286 38.7084 2.96392C37.5355 1.791 35.5346 1.791 34.2237 2.96392L10.3513 25.5254C11.8692 25.6634 13.3181 26.1464 14.4221 27.4572C15.871 29.1131 16.2849 31.3899 15.664 33.4598L38.9154 8.41456C40.3643 6.89664 40.3643 4.55078 38.9154 3.17089Z" fill="#C5CDD9"/>
<g id="Group">
<path id="Vector_3" d="M32.4294 4.75783L34.0853 6.4137C34.2233 6.55173 34.4303 6.62067 34.5683 6.62067C34.7062 6.62067 34.9133 6.55166 35.0512 6.4137C35.3272 6.13773 35.3272 5.72372 35.0512 5.44774L33.3953 3.79187L32.4294 4.75783Z" fill="#2D93C7"/>
<path id="Vector_4" d="M30.4289 6.62075L32.1538 8.34563C32.2918 8.48366 32.4987 8.5526 32.6367 8.5526C32.7747 8.5526 32.9817 8.48358 33.1196 8.34563C33.3956 8.06966 33.3956 7.65565 33.1196 7.37967L31.3948 5.65479L30.4289 6.62075C30.4289 6.62075 30.3599 6.62075 30.4289 6.62075Z" fill="#2D93C7"/>
</g>
</g>
<defs>
<clipPath id="clip0_125_18293">
<rect width="40" height="40" fill="white" transform="translate(-0.000244141)"/>
</clipPath>
</defs>
</svg>
