<svg width="40" height="40" viewBox="0 0 40 40" fill="none" xmlns="http://www.w3.org/2000/svg">
<g id="pet-svgrepo-com 1">
<g id="Group 469">
<path id="Vector" d="M37.6604 18.4805H2.33569V22.6363H37.6604V18.4805Z" fill="#4D6572"/>
<path id="Vector_2" d="M37.6593 18.4805H31.4255V22.6363H37.6593V18.4805Z" fill="#34454E"/>
<path id="Vector_3" d="M3.37476 18.4804L4.73132 8.30592C5.14421 5.20896 7.78608 2.896 10.9105 2.896H29.0858C32.2102 2.896 34.8519 5.20897 35.265 8.30584L36.6216 18.4804" fill="#DFE1E5"/>
<path id="Vector_4" d="M35.2644 8.30584C34.8516 5.20881 32.2098 2.896 29.0853 2.896H24.9294C28.0538 2.896 30.6955 5.20897 31.1086 8.30584L32.4651 18.4804H36.621L35.2644 8.30584Z" fill="#C5CDD9"/>
<path id="Vector_5" d="M3.37476 22.6362L4.73132 32.8108C5.14421 35.9079 7.78601 38.2207 10.9105 38.2207H29.0858C32.2102 38.2207 34.8519 35.9077 35.265 32.8108L36.6216 22.6363H3.37476V22.6362Z" fill="#34454E"/>
<path id="Vector_6" d="M31.4261 22.6362L30.0695 32.8108C29.6566 35.9079 27.0149 38.2207 23.8904 38.2207H29.0851C32.2095 38.2207 34.8512 35.9077 35.2643 32.8108L36.6208 22.6363H31.4261V22.6362Z" fill="#4D6572"/>
<g id="Group">
<g id="Group 470">
<path id="Vector_7" d="M19.8962 5.23364C19.4658 5.23364 19.1169 5.58239 19.1169 6.01286V15.3635C19.1169 15.794 19.4658 16.1427 19.8962 16.1427C20.3266 16.1427 20.6754 15.794 20.6754 15.3635V6.01286C20.6754 5.58247 20.3266 5.23364 19.8962 5.23364Z" fill="#34454E"/>
<path id="Vector_8" d="M29.0134 5.23364C28.5829 5.23364 28.2341 5.58239 28.2341 6.01286V15.3635C28.2341 15.794 28.5829 16.1427 29.0134 16.1427C29.4438 16.1427 29.7926 15.794 29.7926 15.3635V6.01286C29.7926 5.58247 29.4437 5.23364 29.0134 5.23364Z" fill="#34454E"/>
<path id="Vector_9" d="M24.4548 5.23364C24.0243 5.23364 23.6755 5.58239 23.6755 6.01286V15.3635C23.6755 15.794 24.0243 16.1427 24.4548 16.1427C24.8852 16.1427 25.234 15.794 25.234 15.3635V6.01286C25.234 5.58247 24.8851 5.23364 24.4548 5.23364Z" fill="#34454E"/>
<path id="Vector_10" d="M10.779 5C10.3487 5 9.99976 5.34875 9.99976 5.77922V15.1298C9.99976 15.5603 10.3487 15.9091 10.779 15.9091C11.2094 15.9091 11.5582 15.5603 11.5582 15.1298V5.77922C11.5582 5.34883 11.2094 5 10.779 5Z" fill="#34454E"/>
<path id="Vector_11" d="M15.3376 5C14.9071 5 14.5583 5.34875 14.5583 5.77922V15.1298C14.5583 15.5603 14.9071 15.9091 15.3376 15.9091C15.768 15.9091 16.1168 15.5603 16.1168 15.1298V5.77922C16.1168 5.34883 15.768 5 15.3376 5Z" fill="#34454E"/>
</g>
</g>
</g>
<g id="Group_2">
<path id="Vector_12" d="M20.0016 34.9999C18.2989 34.9999 16.9138 33.5974 16.9138 31.8744C16.9138 30.1515 18.2989 28.7498 20.0016 28.7498C21.7043 28.7498 23.0894 30.1515 23.0894 31.8744C23.0894 33.5974 21.7043 34.9999 20.0016 34.9999Z" fill="#6EB925"/>
<path id="Vector_13" d="M19.9972 28.1246C19.1459 28.1246 18.4529 27.4238 18.4529 26.5623C18.4529 25.7009 19.1459 25 19.9972 25C20.8485 25 21.5416 25.7009 21.5416 26.5623C21.5416 27.4238 20.8485 28.1246 19.9972 28.1246Z" fill="#6EB925"/>
<path id="Vector_14" d="M16.5436 29.3147C16.1311 29.3147 15.7429 29.1522 15.4517 28.8569C14.8491 28.2477 14.8491 27.2562 15.4517 26.6474C15.743 26.3522 16.1311 26.1896 16.5436 26.1896C16.9553 26.1896 17.3434 26.3521 17.6347 26.6474C18.2372 27.2567 18.2372 28.2477 17.6347 28.8569C17.3434 29.1522 16.9553 29.3147 16.5436 29.3147Z" fill="#6EB925"/>
<path id="Vector_15" d="M23.4581 29.3147C23.0456 29.3147 22.6583 29.1523 22.3662 28.857C22.0748 28.5618 21.9138 28.1695 21.9138 27.7521C21.9138 27.3351 22.0748 26.9423 22.3662 26.6474C22.6584 26.3522 23.0456 26.1897 23.4581 26.1897C23.8707 26.1897 24.2588 26.3522 24.55 26.6474C24.8413 26.9422 25.0024 27.335 25.0024 27.7521C25.0024 28.1695 24.8413 28.5618 24.55 28.857C24.2588 29.1523 23.8707 29.3147 23.4581 29.3147Z" fill="#6EB925"/>
</g>
</g>
</svg>
