<svg width="40" height="40" viewBox="0 0 40 40" fill="none" xmlns="http://www.w3.org/2000/svg">
<g id="safety-vest-svgrepo-com 1">
<path id="Vector" d="M19.9837 2.42667C16.6637 2.42667 14.0848 1.21333 12.9059 0V16.9911H27.0625V0C25.8825 1.21333 23.3303 2.42667 19.9837 2.42667Z" fill="#707487"/>
<path id="Vector_2" d="M32.119 8.84222V3.52C32.119 2.31667 31.3701 1.26889 30.3023 0.976667L26.7257 0L19.9846 16.21L13.2435 0L9.66679 0.976667C8.59901 1.26889 7.85012 2.31778 7.85012 3.52V8.84111C7.85012 12.9111 4.83234 16.21 1.10901 16.21V37.3611C1.10901 38.7011 2.16568 39.7889 3.4679 39.7889H16.6135C18.4746 39.7889 19.9846 38.1389 19.9846 36.1044C19.9846 38.1389 21.4935 39.7889 23.3557 39.7889H36.5012C37.8046 39.7889 38.8612 38.7022 38.8612 37.3611V16.21C35.1368 16.21 32.119 12.9111 32.119 8.84222Z" fill="#34454E"/>
<path id="Vector_3" d="M1.10901 32.2222H19.9846V35.5556H1.10901V32.2222ZM38.8601 35.5556H19.9846V32.2222H38.8601V35.5556ZM1.10901 24.4445H19.9846V27.7778H1.10901V24.4445ZM38.8601 27.7778H19.9846V24.4445H38.8601V27.7778Z" fill="#FECD57"/>
<path id="Vector_4" d="M13.333 25.5556V0.211111L13.2452 0L9.99963 0.886667V25.5556H13.333ZM29.9996 25.5556V0.894444L26.7274 0L26.6663 0.147778V25.5556H29.9996Z" fill="#FECD57"/>
<path id="Vector_5" d="M18.8082 12.2222V38.8833C19.1841 38.5251 19.4827 38.0938 19.6856 37.6158C19.8885 37.1379 19.9915 36.6236 19.9882 36.1044C19.9882 37.1922 20.4271 38.1588 21.1127 38.8333V12.2222H18.8082Z" fill="#707487"/>
</g>
</svg>
