<svg width="40" height="40" viewBox="0 0 40 40" fill="none" xmlns="http://www.w3.org/2000/svg">
<g id="search-svgrepo-com 1" clip-path="url(#clip0_125_18408)">
<path id="Vector" d="M40.0005 8.58221H0.000488281V36.5897H40.0005V8.58221Z" fill="#34454E"/>
<path id="Vector_2" d="M0.000488281 9.32593V4.34656C0.00236328 3.65718 0.561113 3.09843 1.25049 3.09656H38.7474C39.4367 3.09843 39.9955 3.65718 39.9974 4.34656V9.32531H0.000488281V9.32593Z" fill="#CFDCE5"/>
<path id="Vector_3" d="M36.8433 7.93042H13.3989L15.6414 4.49292H36.8433V7.93042Z" fill="white"/>
<g id="Group">
<path id="Vector_4" d="M4.21205 7.22781C4.7992 7.22781 5.27518 6.75183 5.27518 6.16469C5.27518 5.57754 4.7992 5.10156 4.21205 5.10156C3.6249 5.10156 3.14893 5.57754 3.14893 6.16469C3.14893 6.75183 3.6249 7.22781 4.21205 7.22781Z" fill="#FF3B30"/>
<path id="Vector_5" d="M7.02846 7.22781C7.6156 7.22781 8.09158 6.75183 8.09158 6.16469C8.09158 5.57754 7.6156 5.10156 7.02846 5.10156C6.44131 5.10156 5.96533 5.57754 5.96533 6.16469C5.96533 6.75183 6.44131 7.22781 7.02846 7.22781Z" fill="#FECD57"/>
<path id="Vector_6" d="M9.84901 7.22781C10.4362 7.22781 10.9121 6.75183 10.9121 6.16469C10.9121 5.57754 10.4362 5.10156 9.84901 5.10156C9.26187 5.10156 8.78589 5.57754 8.78589 6.16469C8.78589 6.75183 9.26187 7.22781 9.84901 7.22781Z" fill="#6EB925"/>
</g>
<g id="Group_2">
<path id="Vector_7" d="M40.0005 35.9059H0.000488281V36.9034H40.0005V35.9059Z" fill="#42ADE2"/>
<path id="Vector_8" d="M39.1992 35.9053H34.0574H31.8236H26.298L24.898 34.8409H15.103L13.703 35.9053H8.17736H5.94361H0.801738H0.000488281V36.9028H40.0005V35.9053H39.1992Z" fill="#42ADE2"/>
<path id="Vector_9" d="M34.4027 7.22719L34.1796 7.00844L34.9521 6.21468L34.1333 5.41593L34.3514 5.19281L35.3939 6.20844L34.4027 7.22719Z" fill="#42ADE2"/>
<path id="Vector_10" d="M35.0017 6.05536H32.938V6.36786H35.0017V6.05536Z" fill="#42ADE2"/>
</g>
<g id="Group_3">
<path id="Vector_11" d="M30.4755 25.1622H9.03174V25.7872H30.4755V25.1622Z" fill="white"/>
<path id="Vector_12" d="M26.6761 27.9785H12.563V28.6035H26.6761V27.9785Z" fill="white"/>
<path id="Vector_13" d="M35.438 20.9634H4.56299V14.7759H35.438V20.9634Z" fill="white"/>
</g>
<g id="Group_4">
<path id="Vector_14" d="M30.4952 19.4996C29.4502 19.5002 28.6027 18.6527 28.6021 17.6077C28.6014 16.5627 29.4489 15.7152 30.4939 15.7146C31.5389 15.714 32.3864 16.5615 32.3871 17.6065C32.3871 17.6071 32.3871 17.6071 32.3871 17.6077C32.3858 18.6521 31.5396 19.4983 30.4952 19.4996ZM30.4952 16.3402C29.7952 16.3396 29.2277 16.9071 29.2271 17.6071C29.2264 18.3071 29.7939 18.8746 30.4939 18.8752C31.1939 18.8759 31.7614 18.3084 31.7621 17.6084V17.6077C31.7608 16.9084 31.1946 16.3421 30.4952 16.3402Z" fill="#415E72"/>
<path id="Vector_15" d="M31.7551 18.4237L31.313 18.8655L32.4007 19.9538L32.8428 19.512L31.7551 18.4237Z" fill="#415E72"/>
</g>
</g>
<defs>
<clipPath id="clip0_125_18408">
<rect width="40" height="40" fill="white" transform="translate(0.000488281)"/>
</clipPath>
</defs>
</svg>
