<svg width="42" height="42" viewBox="0 0 42 42" fill="none" xmlns="http://www.w3.org/2000/svg">
<g clip-path="url(#clip0_125_18162)">
<path d="M13.5001 8.16769V4.61176C14.8733 2.97486 19.7073 0.16658 24.3325 0.16658C28.666 0.16658 31.8325 4.08316 31.8325 8.50217H28.5V15.1672H21.8325V9.94565L13.5001 8.16769Z" fill="#CBD0D8"/>
<path d="M13.5002 0.16658V6.84377L10.1677 6.1327V2.57685C10.75 1.88288 11.9535 0.97839 13.5002 0.16658Z" fill="#2D93C7"/>
<path d="M18.3767 16.5325C18.9028 15.7818 20.0833 15.1672 21 15.1672H24.3325C25.2493 15.1672 26.4297 15.7817 26.9546 16.5325L30.8768 22.1355C31.4029 22.8862 31.8325 24.2504 31.8325 25.1672V40.166C31.8325 41.084 31.083 41.8334 30.1663 41.8334H15.1663C14.2497 41.8334 13.5001 41.084 13.5001 40.166V25.1672C13.5001 24.2504 13.9298 22.8862 14.4559 22.1355L18.3767 16.5325Z" fill="#E5E8EC"/>
<path d="M16.711 9.51264L18.8814 6.93108L20.2583 7.69288L18.088 10.2749C17.8291 10.5835 17.3104 10.6628 16.9296 10.4523C16.5499 10.2422 16.4522 9.82117 16.711 9.51264Z" fill="#34454E"/>
<path d="M32.2466 31.2746C32.2466 32.0196 31.4971 32.6278 30.5804 32.6278H15.5804C14.6637 32.6278 13.9142 32.0196 13.9142 31.2746V23.837H32.2466V31.2746Z" fill="#2D93C7"/>
<path d="M26.6521 27.2179H32.2466V28.57H26.6521C26.1919 28.57 25.8196 28.267 25.8196 27.8945C25.8196 27.5201 26.192 27.2179 26.6521 27.2179Z" fill="#34454E"/>
<path d="M26.6521 23.8367H32.2466V25.1888H26.6521C26.1919 25.1888 25.8196 24.8857 25.8196 24.5122C25.8196 24.1387 26.192 23.8367 26.6521 23.8367Z" fill="#34454E"/>
<path d="M25.5803 21.1313C25.5803 20.7578 25.9538 20.4547 26.4141 20.4547H32.2466V21.8079H26.4141C25.9539 21.8079 25.5803 21.5048 25.5803 21.1313Z" fill="#34454E"/>
</g>
<defs>
<clipPath id="clip0_125_18162">
<rect width="41.6649" height="41.6668" fill="white" transform="matrix(-1 0 0 1 41.8325 0.16658)"/>
</clipPath>
</defs>
</svg>
