<svg width="40" height="40" viewBox="0 0 40 40" fill="none" xmlns="http://www.w3.org/2000/svg">
<g id="steering-wheel-car-svgrepo-com 1" clip-path="url(#clip0_125_18353)">
<path id="Vector" d="M22.2374 37.7632H17.7637L16.8865 24.2532H23.1146L22.2374 37.7632Z" fill="#DFE1E5"/>
<path id="Vector_2" d="M19.9998 37.7631H22.2366L23.1138 24.2531H19.9998V37.7631Z" fill="#C5CDD9"/>
<path id="Vector_3" d="M15.7441 22.8509L2.23413 21.7983V18.2018L15.7441 16.886V22.8509Z" fill="#DFE1E5"/>
<path id="Vector_4" d="M37.7637 21.7983L24.2537 22.8509V16.886L37.7637 18.2018V21.7983Z" fill="#C5CDD9"/>
<g id="Group">
<path id="Vector_5" d="M19.9998 40C14.6576 40 9.63507 37.9197 5.85757 34.1421C2.08007 30.3647 -0.000244141 25.3422 -0.000244141 20C-0.000244141 14.6578 2.08007 9.63531 5.85757 5.85789C9.63507 2.08031 14.6576 0 19.9998 0C25.3419 0 30.3644 2.08031 34.1419 5.85789C37.9194 9.63531 39.9998 14.6578 39.9998 20C39.9998 25.3422 37.9194 30.3646 34.1419 34.1421C30.3644 37.9197 25.3419 40 19.9998 40ZM19.9998 4.47367C11.4385 4.47367 4.47343 11.4388 4.47343 20C4.47343 28.5613 11.4385 35.5263 19.9998 35.5263C28.561 35.5263 35.5261 28.5613 35.5261 20C35.5261 11.4388 28.561 4.47367 19.9998 4.47367Z" fill="#34454E"/>
<path id="Vector_6" d="M20.0015 26.49C16.4229 26.49 13.5115 23.5786 13.5115 20C13.5115 16.4214 16.4229 13.51 20.0015 13.51C23.5801 13.51 26.4915 16.4214 26.4915 20C26.4915 23.5786 23.5801 26.49 20.0015 26.49Z" fill="#34454E"/>
</g>
<g id="Group_2">
<path id="Vector_7" d="M35.5261 20C35.5261 28.5613 28.561 35.5263 19.9998 35.5263V40C25.3419 40 30.3644 37.9197 34.1419 34.1421C37.9194 30.3647 39.9998 25.3422 39.9998 20C39.9998 14.6578 37.9194 9.63531 34.1419 5.85789C30.3644 2.08031 25.3419 0 19.9998 0V4.47367C28.561 4.47367 35.5261 11.4388 35.5261 20Z" fill="black"/>
<path id="Vector_8" d="M26.4898 20C26.4898 16.4214 23.5783 13.51 19.9998 13.51V26.49C23.5783 26.49 26.4898 23.5786 26.4898 20Z" fill="black"/>
</g>
<path id="Vector_9" d="M19.9974 22.1931C18.7882 22.1931 17.8044 21.2093 17.8044 20.0001C17.8044 18.7909 18.7882 17.8071 19.9974 17.8071C21.2066 17.8071 22.1904 18.7909 22.1904 20.0001C22.1904 21.2093 21.2066 22.1931 19.9974 22.1931Z" fill="#2D93C7"/>
<path id="Vector_10" d="M22.1927 20C22.1927 18.7908 21.209 17.807 19.9998 17.807V22.193C21.209 22.193 22.1927 21.2092 22.1927 20Z" fill="#FECD57"/>
</g>
<defs>
<clipPath id="clip0_125_18353">
<rect width="40" height="40" fill="white" transform="translate(-0.000244141)"/>
</clipPath>
</defs>
</svg>
