<svg width="21" height="20" viewBox="0 0 21 20" fill="none" xmlns="http://www.w3.org/2000/svg">
<g id="tabler-icon-link">
<path id="Vector" d="M8.0026 12.4999L13.0026 7.49988M9.66927 4.99993L10.0551 4.55326C10.8366 3.77187 11.8965 3.33293 13.0016 3.33301C14.1068 3.33309 15.1666 3.77217 15.948 4.55368C16.7294 5.33518 17.1684 6.39509 17.1683 7.50022C17.1682 8.60536 16.7291 9.6652 15.9476 10.4466L15.5026 10.8333M11.3361 14.9999L11.0052 15.4449C10.2146 16.2267 9.14755 16.6652 8.03564 16.6652C6.92373 16.6652 5.85668 16.2267 5.06606 15.4449C4.67635 15.0595 4.36697 14.6007 4.15581 14.095C3.94466 13.5893 3.83594 13.0467 3.83594 12.4986C3.83594 11.9506 3.94466 11.408 4.15581 10.9023C4.36697 10.3965 4.67635 9.93771 5.06606 9.55238L5.50272 9.16654" stroke="black" stroke-width="2" stroke-linecap="round" stroke-linejoin="round"/>
</g>
</svg>
