<svg width="21" height="20" viewBox="0 0 21 20" fill="none" xmlns="http://www.w3.org/2000/svg">
<g id="tabler-icon-unlink">
<path id="Vector" d="M14.6641 18.3337V16.667M7.9974 12.5003L12.9974 7.50033M9.66406 5.00038L10.0499 4.55371C10.8314 3.77232 11.8913 3.33338 12.9964 3.33346C14.1016 3.33353 15.1614 3.77262 15.9428 4.55413C16.7242 5.33563 17.1631 6.39554 17.1631 7.50067C17.163 8.60581 16.7239 9.66565 15.9424 10.447L15.4974 10.8337M11.3308 15.0003L11 15.4453C10.2094 16.2271 9.14234 16.6656 8.03043 16.6656C6.91852 16.6656 5.85147 16.2271 5.06085 15.4453C4.67114 15.06 4.36176 14.6012 4.15061 14.0954C3.93945 13.5897 3.83073 13.0471 3.83073 12.4991C3.83073 11.951 3.93945 11.4084 4.15061 10.9027C4.36176 10.397 4.67114 9.93816 5.06085 9.55283L5.49751 9.16699M17.1641 14.167H18.8307M2.16406 5.83366H3.83073M6.33073 1.66699V3.33366" stroke="black" stroke-width="2" stroke-linecap="round" stroke-linejoin="round"/>
</g>
</svg>
