<svg width="25" height="24" viewBox="0 0 25 24" fill="none" xmlns="http://www.w3.org/2000/svg">
<g id="tabler-icon-alert-triangle-filled">
<path id="Vector" d="M12.4992 1.66992C13.4542 1.66992 14.3442 2.13692 14.8892 2.91692L14.9942 3.07692L23.1082 16.6249C23.3548 17.052 23.489 17.5347 23.4981 18.0277C23.5073 18.5208 23.3912 19.0081 23.1607 19.4441C22.9302 19.8801 22.5928 20.2504 22.1801 20.5204C21.7674 20.7904 21.293 20.9513 20.8012 20.9879L20.6062 20.9959H4.38121C3.88891 20.9904 3.40605 20.8602 2.97768 20.6175C2.54932 20.3749 2.18942 20.0276 1.93158 19.6082C1.67374 19.1888 1.52637 18.7109 1.50322 18.2191C1.48008 17.7273 1.58191 17.2377 1.79921 16.7959L1.89821 16.6109L10.0082 3.07292C10.2679 2.64473 10.6335 2.29069 11.0698 2.04494C11.5062 1.79919 11.9984 1.67003 12.4992 1.66992ZM12.5092 14.9999L12.3822 15.0069C12.1392 15.0358 11.9152 15.1529 11.7526 15.3359C11.5901 15.5189 11.5003 15.7552 11.5003 15.9999C11.5003 16.2447 11.5901 16.4809 11.7526 16.664C11.9152 16.847 12.1392 16.964 12.3822 16.9929L12.4992 16.9999L12.6262 16.9929C12.8693 16.964 13.0933 16.847 13.2558 16.664C13.4183 16.4809 13.5081 16.2447 13.5081 15.9999C13.5081 15.7552 13.4183 15.5189 13.2558 15.3359C13.0933 15.1529 12.8693 15.0358 12.6262 15.0069L12.5092 14.9999ZM12.4992 7.99992C12.2543 7.99995 12.0179 8.08988 11.8348 8.25264C11.6518 8.4154 11.5349 8.63967 11.5062 8.88292L11.4992 8.99992V12.9999L11.5062 13.1169C11.5351 13.36 11.6522 13.584 11.8352 13.7465C12.0182 13.909 12.2544 13.9988 12.4992 13.9988C12.744 13.9988 12.9802 13.909 13.1632 13.7465C13.3463 13.584 13.4633 13.36 13.4922 13.1169L13.4992 12.9999V8.99992L13.4922 8.88292C13.4636 8.63967 13.3466 8.4154 13.1636 8.25264C12.9805 8.08988 12.7441 7.99995 12.4992 7.99992Z" fill="#FECD57"/>
</g>
</svg>
