<svg width="25" height="24" viewBox="0 0 25 24" fill="none" xmlns="http://www.w3.org/2000/svg">
<g id="tabler-icon-info-square-rounded-filled">
<path id="Vector" d="M11.999 2L12.641 2.005L13.257 2.022L13.556 2.035L14.135 2.069L14.688 2.115C19.375 2.57 21.338 4.448 21.854 9.021L21.884 9.311L21.93 9.864L21.971 10.591L21.977 10.741L21.994 11.358L21.999 12L21.994 12.642L21.977 13.258L21.964 13.557L21.93 14.136L21.884 14.689C21.429 19.376 19.551 21.339 14.978 21.855L14.688 21.885L14.135 21.931L13.408 21.972L13.258 21.978L12.641 21.995L11.999 22L11.357 21.995L10.741 21.978L10.442 21.965L9.863 21.931L9.31 21.885C4.623 21.43 2.66 19.552 2.144 14.979L2.114 14.689L2.068 14.136L2.027 13.409L2.021 13.259L2.004 12.642L2 12.324V11.676L2.004 11.358L2.021 10.742L2.034 10.443L2.068 9.864L2.114 9.311C2.569 4.624 4.447 2.661 9.02 2.145L9.31 2.115L9.863 2.069L10.59 2.028L10.74 2.022L11.357 2.005C11.567 2.002 11.781 2 11.999 2ZM11.999 11H10.999L10.882 11.007C10.639 11.0359 10.4149 11.153 10.2524 11.336C10.0899 11.519 10.0001 11.7552 10.0001 12C10.0001 12.2448 10.0899 12.481 10.2524 12.664C10.4149 12.847 10.639 12.9641 10.882 12.993L10.999 13V16L11.006 16.117C11.0323 16.3402 11.1331 16.5481 11.292 16.707C11.4509 16.8659 11.6588 16.9667 11.882 16.993L11.999 17H12.999L13.116 16.993C13.3392 16.9667 13.5471 16.8659 13.706 16.707C13.8649 16.5481 13.9657 16.3402 13.992 16.117L13.999 16L13.992 15.883C13.9681 15.679 13.8819 15.4873 13.7452 15.3339C13.6085 15.1806 13.4279 15.0731 13.228 15.026L13.116 15.006L12.999 15V12L12.992 11.883C12.9657 11.6598 12.8649 11.4519 12.706 11.293C12.5471 11.1341 12.3392 11.0333 12.116 11.007L11.999 11ZM12.009 8L11.882 8.007C11.639 8.03591 11.4149 8.15296 11.2524 8.33597C11.0899 8.51897 11.0001 8.75524 11.0001 9C11.0001 9.24476 11.0899 9.48103 11.2524 9.66403C11.4149 9.84704 11.639 9.96409 11.882 9.993L11.999 10L12.126 9.993C12.369 9.96409 12.5931 9.84704 12.7556 9.66403C12.9181 9.48103 13.0079 9.24476 13.0079 9C13.0079 8.75524 12.9181 8.51897 12.7556 8.33597C12.5931 8.15296 12.369 8.03591 12.126 8.007L12.009 8Z" fill="#42ADE2"/>
</g>
</svg>
