<svg width="500" height="500" viewBox="0 0 500 500" fill="none" xmlns="http://www.w3.org/2000/svg">
<rect width="500" height="500" rx="60" fill="#F5F7FA"/>
<rect x="40" y="40" width="420" height="420" rx="210" fill="#42ADE2"/>
<path fill-rule="evenodd" clip-rule="evenodd" d="M265.3 221.749L222.46 221.593H173.099C156.549 215.542 142.387 202.379 137.506 183.642C136.059 178.085 134.113 170.548 136.088 165.133C137.292 161.832 140.977 160.328 144.029 160.311C162.464 160.209 180.898 160.192 199.333 160.156C233.224 160.088 232.888 160 266.78 160C285.396 160 300.874 160.873 317.433 169.954C330.12 176.912 339.848 186.3 348.346 197.952C355.594 207.888 359.836 219.897 362.668 232.325C371.677 271.847 350.306 309.022 320.553 328.603C312.873 333.658 303.197 336.505 294.461 338.247C257.627 345.593 230.976 329.779 219.559 292.207L242.429 292.13L265.3 292.052C269.445 292.036 269.445 283.964 265.3 283.964C265.3 283.964 238.61 284.016 219.23 283.964C215.317 283.954 209.361 279.946 206.204 277.868C192.983 269.168 183.471 256 179.105 239.239C178.398 236.525 177.256 232.565 177.256 229.837L265.3 229.992C269.445 230.002 269.445 221.756 265.3 221.749Z" fill="white"/>
</svg>
