<svg width="40" height="40" viewBox="0 0 40 40" fill="none" xmlns="http://www.w3.org/2000/svg">
<g id="trolley-svgrepo-com 1">
<path id="Vector" d="M34.7239 8.90356H15.8633V33.938H34.7239V8.90356Z" fill="#6EB925"/>
<path id="Vector_2" d="M34.7239 17.2169H15.8633V25.6259H34.7239V17.2169Z" fill="#FECD57"/>
<path id="Vector_3" d="M34.7239 25.5292H15.8633V33.9381H34.7239V25.5292Z" fill="#2D93C7"/>
<path id="Vector_4" d="M12.6044 31.8499C12.1828 31.8499 11.841 31.5081 11.841 31.0865V3.41232C11.841 2.37254 10.9952 1.52666 9.95538 1.52666H6.03681C5.61516 1.52666 5.27344 1.18486 5.27344 0.763293C5.27344 0.341724 5.61516 0 6.03681 0H9.95538C11.837 0 13.3677 1.53073 13.3677 3.41232V31.0865C13.3677 31.5081 13.0261 31.8499 12.6044 31.8499Z" fill="#34454E"/>
<path id="Vector_5" d="M31.9732 34.7015H15.4587C15.037 34.7015 14.6953 34.3597 14.6953 33.9382C14.6953 33.5166 15.037 33.1748 15.4587 33.1748H31.9732C32.3948 33.1748 32.7365 33.5166 32.7365 33.9382C32.7365 34.3597 32.3947 34.7015 31.9732 34.7015Z" fill="#34454E"/>
<path id="Vector_6" d="M12.6088 39.9999C15.9568 39.9999 18.6708 37.2859 18.6708 33.9379C18.6708 30.59 15.9568 27.876 12.6088 27.876C9.26091 27.876 6.54688 30.59 6.54688 33.9379C6.54688 37.2859 9.26091 39.9999 12.6088 39.9999Z" fill="black"/>
<path id="Vector_7" d="M12.6097 36.7901C14.1847 36.7901 15.4615 35.5133 15.4615 33.9383C15.4615 32.3632 14.1847 31.0864 12.6097 31.0864C11.0346 31.0864 9.75781 32.3632 9.75781 33.9383C9.75781 35.5133 11.0346 36.7901 12.6097 36.7901Z" fill="#34454E"/>
</g>
</svg>
