<svg width="40" height="40" viewBox="0 0 40 40" fill="none" xmlns="http://www.w3.org/2000/svg">
<g id="truck-svgrepo-com-2 1" clip-path="url(#clip0_125_18077)">
<path id="Vector" d="M33.4776 9.56519C35.6388 9.56519 37.3906 11.3171 37.3906 13.4782C37.3906 22.5557 37.3906 11.1077 37.3906 20H26.0862V9.56519H33.4776Z" fill="#34454E"/>
<path id="Vector_2" d="M37.3913 18.1817L38.8536 19.6182C38.9719 19.7364 39.0666 19.8702 39.1676 19.9999C39.698 20.6825 40 21.507 40 22.3849V26.5217C40 28.6795 38.2447 30.4348 36.087 30.4348H26.087V18.1817H37.3913Z" fill="#2D93C7"/>
<path id="Vector_3" d="M36.087 22.6087H40V25.2173H36.087C35.3669 25.2173 34.7826 24.6335 34.7826 23.913C34.7826 23.1924 35.3669 22.6087 36.087 22.6087Z" fill="#42ADE2"/>
<path id="Vector_4" d="M3.91273 4.34778H24.7823C26.94 4.34778 28.6953 6.10309 28.6953 8.26083V30.4347H3.91273C1.755 30.4347 -0.000312805 28.6794 -0.000312805 26.5217V8.26083C-0.000312805 6.10309 1.755 4.34778 3.91273 4.34778Z" fill="#E2E7EC"/>
<path id="Vector_5" d="M3.91301 4.34781H14.3478V30.4348H3.91301C1.75528 30.4348 -3.43323e-05 28.6794 -3.43323e-05 26.5217V8.26086C-3.43323e-05 6.10312 1.75528 4.34781 3.91301 4.34781Z" fill="#CCD5E0"/>
<g id="Group">
<path id="Vector_6" d="M6.52 12.1739H22.1722C22.8923 12.1739 23.4766 11.5901 23.4766 10.8696C23.4766 10.149 22.8923 9.56519 22.1722 9.56519H6.52C5.79992 9.56519 5.21563 10.149 5.21563 10.8696C5.21563 11.5901 5.79992 12.1739 6.52 12.1739Z" fill="#B7C5D2"/>
<path id="Vector_7" d="M6.52 22.6087H22.1722C22.8923 22.6087 23.4766 22.0249 23.4766 21.3043C23.4766 20.5838 22.8923 20 22.1722 20H6.52C5.79992 20 5.21563 20.5838 5.21563 21.3043C5.2157 22.0249 5.79992 22.6087 6.52 22.6087Z" fill="#B7C5D2"/>
<path id="Vector_8" d="M6.52 17.3914H22.1722C22.8923 17.3914 23.4766 16.8075 23.4766 16.087C23.4766 15.3664 22.8923 14.7826 22.1722 14.7826H6.52C5.79992 14.7826 5.21563 15.3664 5.21563 16.087C5.21563 16.8075 5.79992 17.3914 6.52 17.3914Z" fill="#B7C5D2"/>
</g>
<path id="Vector_9" d="M28.6966 35.6521C31.5737 35.6521 33.9141 33.3118 33.9141 30.4347C33.9141 27.5576 31.5738 25.2173 28.6966 25.2173C25.8195 25.2173 23.4792 27.5576 23.4792 30.4347C23.4792 33.3118 25.8196 35.6521 28.6966 35.6521Z" fill="#34454E"/>
<path id="Vector_10" d="M23.4779 30.4347C23.4779 27.5577 25.8182 25.2173 28.6953 25.2173V35.652C25.8182 35.6521 23.4779 33.3117 23.4779 30.4347Z" fill="black"/>
<path id="Vector_11" d="M28.696 27.826C30.1345 27.826 31.3047 28.9962 31.3047 30.4347C31.3047 31.8732 30.1345 33.0434 28.696 33.0434C27.2575 33.0434 26.0873 31.8732 26.0873 30.4347C26.0873 28.9962 27.2575 27.826 28.696 27.826Z" fill="#DBDFE3"/>
<path id="Vector_12" d="M26.0866 30.4347C26.0866 28.9962 27.2568 27.826 28.6953 27.826V33.0435C27.2568 33.0435 26.0866 31.8732 26.0866 30.4347Z" fill="#CAD1D7"/>
<path id="Vector_13" d="M10.4348 35.6522C13.3118 35.6522 15.6522 33.3119 15.6522 30.4348C15.6522 27.5577 13.3119 25.2173 10.4348 25.2173C7.55769 25.2173 5.21738 27.5577 5.21738 30.4348C5.21738 33.3119 7.55777 35.6522 10.4348 35.6522Z" fill="#34454E"/>
<path id="Vector_14" d="M5.22008 30.4347C5.22008 27.5577 7.56039 25.2173 10.4375 25.2173V35.652C7.56039 35.6521 5.22008 33.3117 5.22008 30.4347Z" fill="black"/>
<path id="Vector_15" d="M10.4343 27.826C11.8728 27.826 13.043 28.9962 13.043 30.4347C13.043 31.8732 11.8728 33.0434 10.4343 33.0434C8.99578 33.0434 7.82563 31.8732 7.82563 30.4347C7.82563 28.9962 8.99578 27.826 10.4343 27.826Z" fill="#DBDFE3"/>
<path id="Vector_16" d="M7.82883 30.4348C7.82883 28.9963 8.99898 27.8262 10.4375 27.8262V33.0436C8.99898 33.0436 7.82883 31.8734 7.82883 30.4348Z" fill="#CAD1D7"/>
<g id="Group_2">
<path id="Vector_17" d="M6.52168 20H14.3478V22.6087H6.52168C5.80161 22.6087 5.21731 22.0248 5.21731 21.3043C5.21739 20.5838 5.80161 20 6.52168 20Z" fill="#A4B5C5"/>
<path id="Vector_18" d="M6.52168 14.7826H14.3478V17.3912H6.52168C5.80161 17.3912 5.21731 16.8074 5.21731 16.0869C5.21731 15.3663 5.80161 14.7826 6.52168 14.7826Z" fill="#A4B5C5"/>
<path id="Vector_19" d="M6.52168 9.56523H14.3478V12.1739H6.52168C5.80161 12.1739 5.21731 11.5901 5.21731 10.8695C5.21731 10.149 5.80161 9.56523 6.52168 9.56523Z" fill="#A4B5C5"/>
</g>
</g>
<defs>
<clipPath id="clip0_125_18077">
<rect width="40" height="40" fill="white" transform="matrix(-1 0 0 1 40 0)"/>
</clipPath>
</defs>
</svg>
