<svg width="40" height="40" viewBox="0 0 40 40" fill="none" xmlns="http://www.w3.org/2000/svg">
<g id="video-svgrepo-com 2" clip-path="url(#clip0_125_18102)">
<path id="Vector" d="M39.2008 4H37.6008C37.1592 4 34.0008 5.9584 34.0008 6.4H29.6008V16.8H34.0008C34.0008 17.2416 37.1592 19.2 37.6008 19.2H39.2008C39.4129 19.2 39.6163 19.1158 39.7663 18.9658C39.9163 18.8159 40.0007 18.6125 40.0008 18.4004V4.8C40.0008 4.58783 39.9165 4.38434 39.7665 4.23431C39.6164 4.08429 39.413 4 39.2008 4ZM27.9924 19.4276C27.9948 20.2872 27.9984 20.8004 28.0008 20.8004V19.6004L27.9924 19.4276ZM4.80078 23.2C4.8011 23.4121 4.88549 23.6154 5.03545 23.7653C5.18541 23.9153 5.38871 23.9997 5.60078 24H9.18358C9.90838 25.0472 10.9672 26.4 11.6008 26.4H12.4008C14.61 26.4 16.4008 28.1916 16.4008 30.4004V38.4C16.4008 38.8243 16.5694 39.2313 16.8694 39.5314C17.1695 39.8314 17.5764 40 18.0008 40H23.2008C23.6251 40 24.0321 39.8314 24.3322 39.5314C24.6322 39.2313 24.8008 38.8243 24.8008 38.4V26.4H26.8008C27.6844 26.4 28.0008 26.084 28.0008 25.2004V20.8004H4.80078V23.2Z" fill="#1C3C50"/>
<path id="Vector_2" d="M28 -2.3166e-05H4.8C2.1492 -2.3166e-05 0 2.14918 0 4.79998V16C0 18.6512 2.1492 20.8004 4.8 20.8004H28C27.9796 20.8004 27.972 -0.0204232 28 -2.3166e-05Z" fill="#EBEEEF"/>
<path id="Vector_3" d="M10.8016 6H8.40156C8.18939 6 7.98591 6.08429 7.83588 6.23431C7.68585 6.38434 7.60156 6.58783 7.60156 6.8V9.2C7.60156 9.41217 7.68585 9.61566 7.83588 9.76569C7.98591 9.91571 8.18939 10 8.40156 10H10.8016C11.0137 10 11.2172 9.91571 11.3672 9.76569C11.5173 9.61566 11.6016 9.41217 11.6016 9.2V6.8C11.6016 6.58783 11.5173 6.38434 11.3672 6.23431C11.2172 6.08429 11.0137 6 10.8016 6Z" fill="#C8CBCB"/>
<path id="Vector_4" d="M28.8 0H28V20.8H28.8C28.9051 20.8 29.0092 20.7793 29.1062 20.7391C29.2033 20.6988 29.2915 20.6399 29.3658 20.5655C29.4401 20.4912 29.499 20.403 29.5392 20.3059C29.5794 20.2088 29.6001 20.1047 29.6 19.9996V0.8C29.6 0.587827 29.5157 0.384344 29.3657 0.234315C29.2157 0.0842855 29.0122 0 28.8 0V0ZM34 6.4H32.8V16.8H34V6.4Z" fill="#23475F"/>
<path id="Vector_5" d="M21.5992 4.80005C21.1245 4.80005 20.6605 4.94081 20.2659 5.20452C19.8712 5.46824 19.5636 5.84307 19.3819 6.28161C19.2003 6.72015 19.1527 7.20271 19.2453 7.66827C19.3379 8.13382 19.5665 8.56146 19.9022 8.89711C20.2378 9.23275 20.6654 9.46133 21.131 9.55393C21.5966 9.64654 22.0791 9.59901 22.5177 9.41736C22.9562 9.23571 23.331 8.9281 23.5947 8.53342C23.8585 8.13874 23.9992 7.67472 23.9992 7.20005C23.9992 5.87485 22.924 4.80005 21.5992 4.80005Z" fill="white"/>
<path id="Vector_6" d="M21.6 5.6C21.1757 5.6 20.7687 5.76857 20.4686 6.06863C20.1686 6.36869 20 6.77565 20 7.2C20 7.62434 20.1686 8.03131 20.4686 8.33137C20.7687 8.63143 21.1757 8.8 21.6 8.8C22.0243 8.8 22.4313 8.63143 22.7314 8.33137C23.0314 8.03131 23.2 7.62434 23.2 7.2C23.2 6.77565 23.0314 6.36869 22.7314 6.06863C22.4313 5.76857 22.0243 5.6 21.6 5.6Z" fill="#6EB925"/>
<path id="Vector_7" d="M14.7984 5.6001H5.19844C4.98626 5.6001 4.78278 5.68438 4.63275 5.83441C4.48272 5.98444 4.39844 6.18792 4.39844 6.4001V8.0001C4.39844 8.21227 4.48272 8.41575 4.63275 8.56578C4.78278 8.71581 4.98626 8.8001 5.19844 8.8001H14.7984C15.0106 8.8001 15.2141 8.71581 15.3641 8.56578C15.5142 8.41575 15.5984 8.21227 15.5984 8.0001V6.4001C15.5984 6.18792 15.5142 5.98444 15.3641 5.83441C15.2141 5.68438 15.0106 5.6001 14.7984 5.6001Z" fill="#2D93C7"/>
<path id="Vector_8" d="M11.2 5.2H8.8C8.58783 5.2 8.38434 5.28428 8.23431 5.43431C8.08429 5.58434 8 5.78782 8 6V8.4C8 8.61217 8.08429 8.81565 8.23431 8.96568C8.38434 9.11571 8.58783 9.2 8.8 9.2H11.2C11.4122 9.2 11.6157 9.11571 11.7657 8.96568C11.9157 8.81565 12 8.61217 12 8.4V6C12 5.78782 11.9157 5.58434 11.7657 5.43431C11.6157 5.28428 11.4122 5.2 11.2 5.2Z" fill="#1C3C50"/>
<path id="Vector_9" d="M10.4016 5.19995H9.60156V9.19995H10.4016V5.19995Z" fill="#23475F"/>
<path id="Vector_10" d="M0 14.4V16C0 18.6512 2.1492 20.8004 4.8 20.8004H28C27.992 20.8004 27.9868 17.9708 27.9836 14.4004L0 14.4Z" fill="#BCC4C8"/>
<path id="Vector_11" d="M39.1992 4H37.5992C37.5288 4 37.384 4.054 37.1992 4.1396V19.0604C37.384 19.146 37.5288 19.2 37.5992 19.2H39.1992C39.4113 19.2 39.6147 19.1158 39.7648 18.9658C39.9148 18.8159 39.9991 18.6125 39.9992 18.4004V4.8C39.9992 4.58783 39.9149 4.38434 39.7649 4.23431C39.6149 4.08429 39.4114 4 39.1992 4Z" fill="#23475F"/>
<path id="Vector_12" d="M8.00156 8.40013V6.11133C7.76356 6.24973 7.60156 6.50493 7.60156 6.80053V8.80053H8.11236C8.04053 8.67927 8.00229 8.54107 8.00156 8.40013Z" fill="#00A185"/>
<path id="Vector_13" d="M9.18359 24C9.90839 25.0472 10.9672 26.4 11.6008 26.4H26.8008C27.6844 26.4 28.0008 26.084 28.0008 25.2004" fill="#23475F"/>
<path id="Vector_14" d="M9.18359 24C9.90839 25.0472 10.9672 26.4 11.6008 26.4H26.8008C27.6844 26.4 28.0008 26.084 28.0008 25.2004V24H9.18359Z" fill="#23475F"/>
</g>
<defs>
<clipPath id="clip0_125_18102">
<rect width="40" height="40" fill="white"/>
</clipPath>
</defs>
</svg>
