<svg width="40" height="36" viewBox="0 0 40 36" fill="none" xmlns="http://www.w3.org/2000/svg">
<g id="XMLID_1923_">
<path id="XMLID_1922_" d="M40 10.1964V31.9309C40 32.8534 39.6336 33.738 38.9813 34.3903C38.329 35.0425 37.4444 35.409 36.522 35.409H3.47804C2.5556 35.409 1.67095 35.0425 1.01869 34.3903C0.366435 33.738 0 32.8534 0 31.9309V10.1964C0 9.27401 0.366435 8.38936 1.01869 7.73711C1.67095 7.08485 2.5556 6.71841 3.47804 6.71841H36.522C37.4444 6.71841 38.329 7.08485 38.9813 7.73711C39.6336 8.38936 40 9.27401 40 10.1964Z" fill="#BCC4C8"/>
<path id="XMLID_1914_" d="M40 14.5498V31.9361C40 32.8585 39.6336 33.7431 38.9813 34.3954C38.329 35.0477 37.4444 35.4141 36.522 35.4141H3.47804C2.5556 35.4141 1.67095 35.0477 1.01869 34.3954C0.366435 33.7431 0 32.8585 0 31.9361L0 14.5498H40ZM10.4354 4.93409H29.5711V0.585899H10.4354V4.93409Z" fill="#1C3C50"/>
<path id="XMLID_1908_" d="M13.2779 13.5154H9.05054V3.17195L10.7412 0.585899H13.2779V13.5154ZM31.0307 3.17195L29.34 0.585899H26.8034V13.5154H31.0307V3.17195Z" fill="#34454E"/>
<path id="XMLID_1905_" d="M40 15.4147V31.9361C40 32.8585 39.6336 33.7431 38.9813 34.3954C38.329 35.0477 37.4444 35.4141 36.522 35.4141H3.47804C2.5556 35.4141 1.67095 35.0477 1.01869 34.3954C0.366435 33.7431 0 32.8585 0 31.9361L0 15.4147H40Z" fill="#2D93C7"/>
<path id="XMLID_1903_" d="M40 16.2836V31.9361C40 32.8585 39.6336 33.7431 38.9813 34.3954C38.329 35.0477 37.4444 35.4141 36.522 35.4141H3.47804C2.5556 35.4141 1.67095 35.0477 1.01869 34.3954C0.366435 33.7431 0 32.8585 0 31.9361L0 16.2836H40Z" fill="#EBEEEF"/>
<path id="XMLID_501_" d="M22.1752 11.9354H17.827C17.7118 11.9354 17.6013 11.8896 17.5198 11.8081C17.4383 11.7267 17.3926 11.6162 17.3926 11.501V10.6308C17.3926 10.5156 17.4383 10.4051 17.5198 10.3236C17.6013 10.2422 17.7118 10.1964 17.827 10.1964H22.1752C22.2904 10.1964 22.4009 10.2422 22.4824 10.3236C22.5639 10.4051 22.6096 10.5156 22.6096 10.6308V11.501C22.6096 11.6162 22.5639 11.7267 22.4824 11.8081C22.4009 11.8896 22.2904 11.9354 22.1752 11.9354Z" fill="#2D93C7"/>
</g>
</svg>
